<mxfile host="Electron" modified="2024-04-03T11:09:52.782Z" agent="Mozilla/5.0 (Macintosh; Intel Mac OS X 10_15_7) AppleWebKit/537.36 (KHTML, like Gecko) draw.io/24.1.0 Chrome/120.0.6099.109 Electron/28.1.0 Safari/537.36" etag="lz54VYEcqNbAGbcyJ3gM" version="24.1.0" type="device">
  <diagram name="Page-1" id="cSmIePk3pP8IMrdGOeGv">
    <mxGraphModel dx="1026" dy="743" grid="1" gridSize="10" guides="1" tooltips="1" connect="1" arrows="1" fold="1" page="1" pageScale="1" pageWidth="827" pageHeight="1169" math="0" shadow="0">
      <root>
        <mxCell id="0" />
        <mxCell id="1" parent="0" />
        <mxCell id="_1kEMvsw2rr0q348Ayij-1" value="" style="shape=image;verticalLabelPosition=bottom;labelBackgroundColor=default;verticalAlign=top;aspect=fixed;imageAspect=0;image=data:image/png,iVBORw0KGgoAAAANSUhEUgAAAMgAAADICAYAAACtWK6eAAAAAXNSR0IArs4c6QAAADhlWElmTU0AKgAAAAgAAYdpAAQAAAABAAAAGgAAAAAAAqACAAQAAAABAAAAyKADAAQAAAABAAAAyAAAAAC4kx+vAABAAElEQVR4AezdB6BW1ZUo/qOCIqCAgg3Ue6kiomJXbGBiL1FT1PRk0tubkikvdTKZTF5e5k3JezMpk96LaWosMfbECiKg0kGxo1hAEFHvf/3Wufty+Lwo5p9kVL6l3O/7Ttln731WX2uvvVm/fv26qoCurq5q6623rh555JHq9DNeVW222WbVyidWVJdccGk17v1VNeHvXFNVMz5RVYu/OqgasPPq6unlm1fVZu5uQ3sGXp4zEBheA4J46qmn8sfixYurAQMHVP226ldO159JSs/6uv417V/tGXgZzUAPgZAgm2++ebXVVltV99/3QLV61erqzrvvzKE+000YQUPdsFm1xWZbpNRxz5ZbblltscUWKXWeeeaZPO5CbTah/H4mGvR93b9112pv3fF11zyrnUbTeX13J8u9zevL99I31zS/O+83JmEczjehtOlcFafK73Jf83fr92Y7ntGnT588ZA5AeV7zvjwRf8qxfG7379Lv5jXaMm/6754C5f7yWY63Pzd+BvJtmVMv7rHHHss7n376qer8835VPdF/dfzeLnBieRX0UD39dPxMInmyWrFmdTWw78Bq1apV1TNdz+R9oa5VAwYMiOueDmm0ttqiT9/qqbVPJfL17ds3X+LatWur/gP6pbTaYvMaGV3v/BNPPJGEOXCbgXltV7Zbv3T3FejXb6t4Zlf15JonEym23CoINNoiAbfoE4QaF7p+s81qYsvjgdxbb+25T+c9iN1344Z0ffsa/4psY/DgwdXq1avzOu1B0Kej7ccffzzH53eRuNp88skYK+JBPfF0yGoOt4i2n3zyybi3fmb/Af2rRx5+JJnQgAFbV2ui/9ocOHBgtue+NWvW5DC11yeerY+u6d9/63hG3/in7aeDEOJJMQZjBCtXrKz6btm3Mhddhfji/iT87NNmMb9123lD+89GzcBmbBCT/vjjq6o9J+yZkz5/3oLqwIMOqKbfMr16akVVbbPvU9W2hz1Vbb/lsOrOy1ZVW9wxqOo/bKtq0YLF1S677FLtsOOw6tFHHq0eeOCBbMeTEQuEJ138W7lyZXYIEnhpTSjH+vfvXw0dNrS6845acjWvcQ5iQBxECRxDDaui763gOteDbYLgVgQCtUJ5bjm+664jqiHbDalm3jIr7tkm+gk567Zdu9tuu1Z33LE0kHP9/rdy7tJe+cQ0jBnRHXbYIdX8BQurZQ8sS6LYfffdqiVL7iiXph3oWYiiwO4du1f33nNvEls51vo5YsTw6vGYl4eXP9x6qud3374kfY/S0HO8/WXDM5ASZIstarE/fMQu1baBGEO3377yUiDZVVdeXa2dMbhaMmPzatKUI6tpM8+tTjr5yCCGZdWianG14047VJMPP6xasviOarcVu1WDBm2byHj5ZVdURx55eDVnzty8dr/9J1XDhw+vbp4+ozr0sIPz2FbB7XDIBx98sNp5552Te0+cuFd1wQUXVqNHj0ok0YdnAtGvjH5ss+021Yrg8sefcFz16KOPVtf+7roc2VFHH1kNHbp9IvaYsWMS8W6+eUa1ww7D8vyMm2+pOjo7qkMOOai65+57gtNuWW0bbenzTjvvlI4JfUPgHTHuIUOGVFdecVXeu8++e1cjRoyoZs2cVb3qjNPic3ZKJ+OcNevWbHPxosXVtoMGRZ8eS2J0/7x586tRo0bmfQuCIDaL/44/4dhsC9EdcMD+1WNx/UGHHFhd9pvLkyAxlUt//Zt8LmY1alRndeON06pXverUau7cedm/0aNHV/fee28SG9Vp2LBhOX8TJ06sng6CvunGm6pB2w6q1jy5JuebJMVQjPfii36dErPYmvmg9p/nnIFkJzgluOfue2MyV+fLfjhUAUgAVlSPVJOnjq1W9n8kf28VxvuNN9yU39eE2F658vFq8OBB1R57jEvkglBvfPMbQhoMq5Yvr+8ZOXJkdevsW6vttt+u5qbxnDFjxiRi77TTjlXnyI4kyPnzF1TbbbddItf2Qag4+UD/Qg1BHJAOMYyLZxUYFMi5NlS5I448otp5l52jD4OrY46ZWu2114R4Vq2TTwiEo74MDuSlQi1cuKgaFH0mNUZGm9TL4cGFlwcH3nHHHSrPBqTUwHBYUMXuvuue6v77789z2kU8K4PT3x1EB1H3DyYwINQoEgYxGusu0R9wwIH7Z1vLly8PibtDRXJQJRHpgvkL45k7VqNGj0wVzvXaGTBgYNU/PIv33Xd/Eiwivu+++3KeEOHYcWOrPsFAbgoi4n2cG8xoWEhgUnB4SHZqK4aA2FxvfCR5sYM8pw3PPQNJILg0oEJ4objz9oGEyx54sOfunbbbubr15turqcdMCSRa3nOc3us3fdtLuuuuu6ulS5emqoB7sUWAFzN23JjUzR8Jdezue+6J6x/N67fZdtvUjz0XF6V73x/cHBIvvXNpEMyQRGbtQC4qCCdCAchd/i1/aHkQ4m3V5qFKGNfSO+/MyxxHbGwN/SUBjXF1qIHPPP1MIP12qao9+ugj2Zc+cV2RBBCNpDEeKiXVjZePOnPfvfdVw0JSmYcVK1YkQQ4IYl4WUvH+QOy5c+fn841Hf6hb28Z4EWutdnZVBwcxud+YSFUIPOf2uXFfV7VLSHXtHnrowfle7o3nUb+8p5Vx3H177jm+euihh6qddtLHp1Jyrg2b6aEY84IFCypjXxyEiHBPOPH4fK4xNQ36Mpftz/VnIG2QzTbfrFqzek1yMEg0PyZ1hx12qBaGakDJ33W3EdXYsaOr31x6efWKVx5T4fKMTZwV0hQvlhcyeszoakaoN4xH+i7Eix/VE6ufqDo7O6p7gwNCnCZA+h2CA88OCTNpv31DZXgopRdVADF4kUvvvCs5I4649z4Tk7ggKESlgun3vHnzq/F77hEI/Ew1L1QSxFaIgs5//InHpU1BpQE4fN9wJOw1cc94RpWqDsRjU5AKgGRYtmxZfvdHf2qjPgziUNUgPMJGJHctvas65hVTk4i//90fVPvuu08g5pKcI2rOmJgbbZNSO++yU6prjnE46MBm0faSuN4zqJMkK2JHnCTDnWH/mFPGPWkzd868lAp9+/RJFYxEMz87xn1sFjYHiUOik5bapkYvXLAo+94mkJ7XusEvNYHES+NtoVowJJ8KhBs2dGhy96aB/c53v6P68he/ssHGqGT08EmT9g3OvDq5KURthQ/9jw+kbYJ4vKQLf3VxSp/nM3Zb22n9fdjkQ6s7ltwZyH139dd/++HqV2HLzJ41Oy9jj7z5LW+qvvSlr1S7hL2zY3BbHJy3iY0CBEqNH4waNbKauPfEJJo3v/VN1e233R46/S7JlenzGMf3vvv9JIYH7n+gOvmUk5Kov/ud76eaB0GB+YPwpEItMRAZ79LTqXIVh0NeHH/0AWAOmA8C1CdEqS1gnkggLnmfgIeMs4I9aUyeZ261V55brqc2tjpKspH2n2fNQFrnxK2XACG8/Esvvaw6espR1Q9/8OOeCf7s5z6TKscRYXjT+dkEu4UePe2maWkz4HBf/vJX8wGved2rU42YFci5336TkrtOv2l6tXDRouoVwWFxbp4qEXvi//vf+2E+BxK/9qzXVJf/5oqwJw5P3Rs37ArkIFUY0D/8wY+SS+PMdPg9x4+vpk2bHkb+TokcrzvrtdXXv/bNakAgAUOfmnLcccdW//z5f0lk7uwMY/3QQ7q9PV1hKxycBEK/R1if+vQnU22iXuG+rt8xpOklF11SnfP6s5JT6/ueE8ZXgD2DQEiL4o2iKhXXLUSHqD4dC7pKlQ4CY0qOOQ/p4/9UkbTrPAmISHySHBwaBbwn6hQpHren2kdapqevz9bpWnZtITLtlz74bMPGzUASSDHS6ftUJKqLmEATcEQ2wfg99kgv0MjwsFCzjj76qHwJ5513frVzIPPSpXdVDPzBQURjw6OUMYVQL3bfbbf0rDA4Hwpkv/32OfmvuHQR6OlnnJ52D+MTR9wbwYZUwgHZRw+Gnv2q009L22Hs2LHVQ2lLPBCctW94xg5Jteue6OfUqUdHHx5Og/qtb3tLtX0Y/Tj8g8seTEREiBwGi2I8U8OYBxAJIEQMA4KShhPC0Ofd4kViF1xzzW9TIvCKgWVxblz0d3A4Bq7+9nfzGCT1D0D+QgCO+Q4QByjIWo6TNsBv10Bs3N6/0o7zYi+gSTRlDM88uc4N7f7Sl/r6NnHkxG3kn3wbRD4YER4dkgACiW3s3rFbj8oB4SDDk2F0jwkigtCLFi3Ol0iHRgyFqJ4Msf9wGOxcxrgwF+3auI+Bi9B4qcDW3TZC/og/K1Y8ls+lNmzdb+tAinABB1Ij2M3DwKUuQET3PRVqxCPRp99e87uwO8anXr552D28aRBLGwcffFAa5HPnzYvA5wXp/YJkDz24PA3aUSFhnohx1NCVKs+//+sXqn+LfxAS0QnQIXKwdXwnPdln/beOGEyA34iHqjSyszOP8UBRh6hHiI1RXtQsx/WheNcY7hDYtVQfgT7ModynQaoRcLzcnwfaf/7oMxDOpz6f9BTcB7fmo+e69ZtnqOjSXiLDlQSAuGIQjG1q1D3hkRo4cJuIcdycdswjwXl5T24K9YvXBRcTF2Hcswm4XNcGB5w7d262iUNDouuuvT4Rl8rkeT61f+5PfprSxPM+/7//TxLLzFtmplFOEiBWRIS7x6OqG264sZoxY2YS4iUX/zrVGJ4g0vHaeMby5Q9l5B0R3XXXXanuDQ2ba+3aJ9N+YHTfGZ644P3Vz376i+qggw9MNWp+uGN/G8+gopFq+sdzROrsNXGvHPv1198Q5x5PAkU0iNWnOdBPz0RwAwf2z2P9ghFQFTkRBFbNPRWt3Mem4LVCQLyE7kdI5kebbfjjzkAa6eURiMLE1/ozjr4ybRJqgPjIHwtIFMjjn4Di9Gk3p52CO3McdHZ2BBHyyvRN1WnUqFHV1VddnX069bSTq29/67uJoMUg/0P0kzfqN5detl5T+rF9EJJg3IZAEJONtWBeeAKj7zxge+65ZxDaz9KGE6f53W+vfdbtZ7769ED4zdMLRUoiUkFP3rADDzqwuubqa6pXv+bMJGYMgO3RVK+e1WD7wB9kBlKCENu41LHHvTKNTdz4lcceky7SBQsWhmgfkNFZ3hEcD0LT0en+goaMQ5xt30n7pCHr9yGhnshT+vgnP5YSQ5Bv//33S/vhlFNPrkR+Dzhgv4zYkzyIkBEs2Mfoff/73xtG75KMOHNRIo6zz3ldSKaFGTegouy++66h/49L1ePEE09Iife///l/JfflQDjgwAMymMfhgNsef/yx1ePB3XcNe4b7FkfGEPTnxBOPz5jCQZFiw60qNpEu37AJTjn1pMwAeOOb3pDGsiDgQYG0JAy3NzXpnHPOqpaHyide4fdOQQinRrtc19J2zIn5TTU0GP9xxx+XhP/Rj//P9BZqD0Piwp4ydUp1Y0giRMoJ4lrxG/3ZNcaFQBEqr1VbivxB6GCDjXQb6bVRx4vDvrgzgmsPPzw+g23ulPyGIIYPH5GGr0BbMSadp5tDtMMPn1wNjOivyC3kF82VRHd/IPwhgTjUBMiDwBjp48fvVT2x5onkqCLUu+++e3LO0yK1QmCNJEM4zp37k5+lncN1O3Fi3BfqiHSNReEZQ0hcvK6DgO456+zXhaqyKlC47r+4AjXukot+XR0cfUGw1DfAGdDRWafW6CMJQHmhCu0WzoV9J+2bdgDP0a2zHw4EPjpVUGOeFF46HiwR9ZNPPjFVL4HSX11wUXrWSCHIX0vnZzIe8WfveHtIk8HVLaEGCpbeGBJhcvR/9uzZOR7xEKrgCSedUD0SkmTlyhUx9rHhXfxN9YEPvk+Xs//eCVupDX+8Geg20mvPCeMTUh551BGh2uxY3XD9jYkYEA4HJyUgRZM4dE2gDsgWve666+PlPRaqxYMR37goVQz3kFK4uheKOObMmROJf3ckMlMpwJrQ13fddddqj/Hjgpj6h0v4mLyPqgW27jaMITHkYCP17x/GbRxnC9D1RciNgUScEXaKCDNJoT847pmvPTPVGI6EAohUIFKwT5oGrqwv+q1vCPDqq66pngwVdNgOQ9Pm4DyYOHGvvMbcFERlUCMsDoDSXzYG9fH6mBvEtEUQgIRQdhnbiP3DlStYum3kUbExwIAYG4dEsT+4sklA4PryzDzQ/vNHmYFUsSAEo3CXCISZdFFv6oMUDNyf94ghDSEhQyu4x/2bR0Te53m/vCDVAQY9rs6OmDNnbhrXDHFcU/xjVSAN22JxSAE2DoSE+KQEuO2225PzilH89re/C2LdMg3zI48+IlUeyAVJV4TBTIXhRJCWrj+SCyHibbNvzz7g6n0ian7pry/NJL4ngkB44YAxMbQ9j2RavHhxEgQXtNiGNkkbUgBz4IDwLG5x0hSXp7J97avfyHH7bgxUUI4JDOfGG6dl/pV5uCDO8RRedNElOeckkzmmSv74Rz9JNQ6BUrdE/UnWH/3wx9UZZ56e88VBgQnoa1vFylf4R/uTRjq3IyQpEdfm03i2ZJ2eGOL+tltvy3Rv6zHcU8B3EgLCAhyfkbmxIN2DmoYANwQQQv9wZxIBUNcgkQzh3wcgpPUqpM3zA6Vr3Zib13Nx6xPpVQCHh8DN/pZz5ZN0EkvqDUpWgnnFdMA+++xdLQ5pZh2MOW8TR28z94c9lgTiJUBORiTxLjv08CMOS+5387QZuSDqw3/9l5mE+IPv/yi9M9Z/NF+QF1b89VQxiYDsD3leuOOaQBZtc4GCorbhyNQP0sN1vDNUpS1DVSHBnoiUFeFn3FveFduB+iWK7JmQW+YtLixBUPyE9IuTQUCi1WuS69ft989xFvXEvcbguYit9IEEMoYcX9AFNYdtU1RLiYwFQak/JIm8J0iNKIC2jNe8UrG4b0m5lNCh0okRLVv2YHq2OD8QAa+UZ5pHzMb15kZsxKIrDMI5/fD8NvzxZ2A9I51LsqOjI2MDVB0vv6wWpCpwwQKpH03icMzvwul8p6MXhKKyATGWcsxvSFQQzXFICSHcX9zKjpdnIbj6uicT0RxneEMcCCwd47Ene5dCrl29KlSSINgiKUtfVmf/IFwdq9A31xckfHylfpMgNehnAQRLugHEgNDKvZ7jN+JAGEXyOY84PL8cK+M0JwjX/CM2fXC/TwTjvLba8KeZgSQQSAMQBA4OIChOW0AKuixZ4AU/HxTka17f232tx5r3uRdiFEQt1xYEcZxkcXyLLeo+lWt6618ZZ+s19XDKmMrnunG2Drd5PwIgDYG+P1d/m/eVcZZjrfc1f2vbdcbahj/tDHQn/tQPZYfgWvR6KRii1HRoMHLkyJ7MWLzWC3wxwIulHy+GuWj34Q8/Az1GOt22NyOZ+oBoDj9icibrtcZA/vBdarfYnoEXzwwkgeRquNClRW6pWb/8xXnVa1776syVKgUMGI30YlKmzbVfPC+w3ZM/7gykilXKxNRG5eYR4d4jot1DemwQOrjfvF1F///jdqvdensGXhwzkARSDEWfJISIMhellBAg1ZzRLh+oGJeOl/t87w02dL5IIB4Z/7SZrsz4zhPmGGJ0f29tNI+V/vjUbjFkEbXrHNMWY7oVBB7Lfa4r/0oqenmOz9JWaxvN3+W6Zpv6UaA+X37Vxeqa7t11Z+pvjH99Ku36XsB8Afcbs3djjM1r3NeW+GXGfr/P2ovV/Ra5EcUElPox8WIdQGDKughrqdkqVC3gc50XKdyZ3bEDL8bL4rJNV3G4JZueHkFBqR5ctO6nvol9WIIrdWTl4yszfd2zvHAIXp7juV66355PokFIHqoB/fpX/aL/j4d7tWS68sRZywI4HIwL6J8FUfqqHxIrRa9JUwUfpOMDz/F8/RB/4ao2FvcjZPc7pw/csRDXuD1LJN3iMeNwLU+gay128mlOzTnmw/5zXSGKftGfbbfcJuNG9bOiNlnEeoLs0w0seKtfsh/co3gEwNh4G7mlzY259Q5co69teGEzsM5Ij+i4SW+FEkSjfimPI0UE4bBbIJsXooiAYBeD3osADPtmwYO6uEJdPK31GZCpo7Mjiz2Uc0r2iL0gBs9uvmRtWxJbEB8RONaEgtQQfNiwodVWcY2iCogBAjuuQIRSR9JhNgRUS4yhCfoiVuEZ/ukfKBkEUtrLOppyzDx6LjBnCLrkVTlW2nQOQUBsUJgB93sJskL0iXvvlQFKBAioxeZDNL8wFvTQ0dERuW9zkxjb6nFO1Qv605PuLuB1dBSGs5RWuvfhhx9W3RMFyjaPWfayFDyQ9s2Al9T4ZCwukgV7Z0SRRZAnTdo3M1EhO274zne9I5MYly17IFPbXYdrKkh37HGvSIR++5+9NStwjI/kxENjEZJaUR/80AeSUx4ZxeAQXOfIzsy3umXGLYmAXrLFSfKlwMc+8ZGs1nFaLMU988wzIk3/FYmIcqhcK21dBiwiiMEmp7VyUirMu9/9zqyLJZfqLVGYYbdIn4dQBx54QHJb0XrEsV+k6avbZb27KPqCIFyVQhAlyQfMDyS3uKqzsyNysnapZCVfcfmV+VtgcMJe6lOZn5CYIYle/4Zzsm/GPWbM6FywtmDBwmQ8U4+ZUp356jMy2TImLgKKj1ZvfftbYo3/vtmnt8V3hKIABre8REbZ1FdeeVWMYfcklPd/4L0537KFpbWQcO5pw8bPQK0rdV9PLRk6dHAislQPXK8ggCIF1I5zXn925k1JZZenZVnq1sH1VgVHvfba6xLxrLcYMWJ49Y2vf7P69Gc+lensKh1SM2TrWsfe0dmRnO4XPz8vkPONmcZi4ZM1HN/59veqv/rwX+R5qsPkSHsBlpxyM6s0eNLJJ6TqJ5HxjFefnghLksyJTGGLlk46+aRMVlSFkLqiKsmH/vyDOZ7Fi5ZUQ04bks/Up3322TsJSWKgeE9oMZlaL7NXcqVUfaWM9A2zUFCCdLRAC8HLypUu/81vfKv62Mc/kpUPd475kblrLbyiEQiSNFHt5av/9fUs8qYAxf4H7JfVFFWntP6degukyOu3BMuPfeKjueJQWVbS5frrbsgcrvN+eX6m+csM1r7zgKoIpPuUxE8qbbGN8mT7z0bNQO3F6k7CozYoy3n5ZVdmqogXbPEUgAyWk+LqO0UqvES/22+bk4uPqAX/8f++mDlRVBd1mnAqKhgEnxgcHyA4hdz+6Z8+l7o5ff8jH/3bUFNq3ds1RVWyzt1/1p5baw6oSFbe0dtVcYTIFlchEkgCeUgDUkxNKanuixYtTgIt1VgQqHXrMoypR8ZjSa8U/C998Su55Fa/lFSlTsqjQlAqpcyZM7eaHou7RoWqKbvZ+HznCu8TeV+A5KJOyri1LBkj2HKrvlk39/FVj6dqpwAFoI5Kw9Eu6QqBAQmNSVDd3v2ed+a8kUDz5s1P4pASVECaDImN0Is3ErMikcy3bGxQHA/lvvbnxs1AvpGCgDvHmoqBoSbgapBeKUtcGSAe3JOqgjhUBKHz4swPxgsj6uvqfjsmUlrwdMAB+6c6UHKXtJWVF0Pd+sqX/isJAEKvXr0q1094Tnmh0sFJLIi8ePESpxKoJxDtxhun9RjFpBOkk9K+dxDj+cFZrVKUSq+QGsMa4bGdXEviUb+uuOLK5LIpNaJ1VQfvjsqQqrdcdeU1OVZp84gBPBoZuwdHmSB1e62PxwyuvOLqXDGIEI+LFYsIZvfdds/5UUdLyrxqKPPnzUt1dGkQeTOD13xCZEzCfAPPU6zPMUuLZTRY9+9z3B5jcxGXNSTA/ZgEglCJHkjeZL9RD9VHBjx2iLANL2wGeox03LQYhn369OkxtluNxhfSfGdnR3JUL4bhSKr4x2PUNHzp6+PGja0uv/yKbJ5hynYgoXi8SDEcUpV2nPSFgHHh9M8F+oaIm04F15NCjF7EZH05RCyAINlVTbBoSxWX3oDUYkcA8+sfiYfx+PQsa0yokXUWs7UeXNd1/pvi3tRFYExUW0XylkT6O2D7MOItSSgODKomp4S1JI5Rl81/GzZ+BtJIL54iujaVQMkeFdNXrqilhuYgqkLJVskVdzBPFsPUby+ajs6Qn3bT9Mpaay/d913DKMbFM1kwmBhbhzRxH7WCXeFFM1o74/mkEuSDRLKCcWrqSLGHshZunIPUe4zfI89bJivb993vfVdWBbFWnBRasGCh7idkLd5wqSIISGkt+jlvODttAAYtVemss19bbRWc2/JjCIe4ra5EHJ/+x0/FctwhubCKi1j7xuA6mQfsgIdjLBi1ZbXUsztCgnB6WJB16mmnZGE8hjuXrf5TBxEghkHdK+5YRGDdDQTnLqZGaY+0cb1xyQTmGt8qrlNOlOqlDWrbNtsOzPXwtybBDM75LypcmY/25/PPwHpxEOseeDt4QxCEAm+F01lrDlHpxdyVZbLXVOIZ/PNVGKV757JaqsWECRNSd3ccYnvxkM2LJw38Kxz0L/7qzwPRBqYKxH1JkpXlqJAKUrhe7dnpUWpHKR7wib//WDxjcfWtb34nkdPKO4WcVUG0wIuni33iPu5Qnh7Ep1rjVaEmUTuoVKNHj85K6WIYJ518YnJbaiYDnCsWgisfRKXUf8yjo6MjjXIeKKBghbk5LforjmKsr+x4RXqrlD8CI8MjV+oSI1LxD/fg6iR1IQ7XIgLz7Z/vDC5eqDJvCItkTNdvECRCIm3EWKha2hbo9Z1K5z3qUxte2AzURnr3xEEiE8x7shVEmHJkcjmT6yUS06QN4vDPMf+K14QR74VSFRizv77k0uyNCuruFY/wkrxYahaOy0XJTcwghpBclIpgF4BAOKN72SM8QQVw1axQEpx83LixucYdUUPQ2aGvX3D+r1IVgWAIkJTDABC4YnMMVwhnCa22OBRIEXt0sJ+MBUd2H2lYj3OztImKoVyvJamq66+tHRgQn72zWzgDECzi0HeAMEkSoG1g/kBNBPm15w8GAur5rq8rx4zBPfkOIqZiTrml/TbH7tFvsS33tImjZ1pf0JduFatWV/YPpIAI86JkP5WFAYjDQmb6sI1umlzOk0y8OrikxJlnnp6Sg7Gs3KeiDIjAyyIVvDCc8J8++w9hLN/SQ0zq9zIs2RxUKpyeagZUDcHBGfUP3L8sK6JT1SDhqFEjU/3RL/EPWyqUHXrp+5Mm7ZtuX8jDAwZ52BR+q3LiGgY6KaG0DoQjRcaMGV3xRiGaB4I4eYcUmNtj3LhQ/e5MSdDZ2ZleKoFE1x12+GFpROsT9dEcPhZjthy31MEiQUhX6+sHhQQoC8lyoC/wTyGs57otiaebAJ/ruva5Dc9AGulOF3WnRG7LLUQ3ZEQIhXuVc+XTi8ARcXN7BUoVwY1xXxJAsO/Nb3ljVh+ZGV4h7f3kx+em/o5oWrkndQMCWy9OpZE2QSq1QkeoOUu6jVTnqDtqeKn8aGsAUoJKhcAeuO+BntWREybsWdHNR48elQW7bQZEiq0KrkxlGx92DbcvtUnl95CT6XGjfpFKiJENckNITLWq2FcYQevctfYXsbPz/jNc4gMHtgu/tc7Pi/F3EkghDqkXVA5FFNTl5SqcNXN2IjquC0iD3gAS03uBaxCHexAWxBkxYngak2pBAWoHxCJ5eKyoIxdddHF1xBGHJxLmRS1/CsF95GN/V90SiHtfSDhxDWqMuEhR6Zq3iWaLYH/m05/N6DZjW2xlQ1CQ/B3vfHv1lS9/db3LFKCjbtL7qYI/+P4Pe84z+AXu3hbZAdvE2BndXLJKJyG0X/78vLTPBPlIZmMhjdvw4p6BNNK3CJ0dUBeGDh2WWwzgvsXXDml4a+i9uH9vIEGOt4c0oE41Ccr3OXNqH79YwaHBRQUWSQoEoixOsOiMkKvw7pjUE/exGSCSeAJX62c/87lqy+jP+cHJP/n3H8+4yute95oszyldhmtTbIWqSHqJjg8KKQioQlJGTgxJILJ8wQUXZrvved+7k8B+F6rPdqHqSa+hYn7wQ+/PmI4oN6eBwOltIZFEx0W8SZIpU4/OOIeq86QQ200cg23C7Ss1hwuWRJRm8prXnln93y/8RxJIWY+enWv/eVHOQBJIibLeew+1qPZIIQbSoy6evCo9SSK8fPEQt6kD+44wSB+eE7+5bhEWCUKiMLAFAXmOROsPPvig6rzzLshJ8RxcfvbsWzM7VTwCgdL3ebAQpWP9oswpCfNoIDqYF8E3nFh1dUXrFJWQ8lHq+HJB6096euJ6BCM9ho2hTYQGhnC1BoHvscce6QIWCCVVhwwekraRzAHeMLYFg57DQeqNY8aKwcyaNSuj39zMEP/Xl16e9pP2EYv2GczGAdLlnd/af17MM5Cio9gWHZ0dqfrsNXFCcO21aZRL8ZamjQAEwVqJowwu6CAN3MdiCwPu0EIc5TxbQ17RNVf/NqWFPKc/e8fbMvoslkFFopbwUvH7Q/7Zs25Nt6gIuBKjPETyjQYPGpzeKXV52RN3hEFNhWMXLFiwMAmb4a5iOncoogDuFZf42U9/nuqQcqEAQkvMNEbJiBAZ0RnvqojyzwtV83vf+V72DxGRRIh1/rz56YiQhsJOUe5UrEhx7UEhMbQH7BosbUYcRrV7wL5qw4t/BtIGwQVxf0EnaRgi18Xnj3hIAedd15sNAhHETcr6EUhJTWpe616BMaqPbFq6uRq+yyNfCmGSBFI4cGYIivtzN9ujj2cJkuHc7A0BRZKMKseJkPVvQ40RLKNCSb/ntTIGdgNVh73gfsRgPADBAV46xr20FGoUYmZ/GTunw8GHHpTEoI/+cSNbI0PiUbEY8kWFIrF44b733R+kisp5wbN28UWXZPqIfR8feUSFyjp3KzvQ/vOinYEkEIgMocfERp1sCdFgXJ3btSA6ImgifHNEbAkq1Rve+PokAuUz2TMZPQ/CKOB+qo22SJA6EdL5GmGpU1S7JvBiub4YtKLXXLVNgJzsDwiNkAFpteWWfaL/dXuFaBnZFiohkrp/YhJPRfu2fbDmol7bQZ1yjWdDcn33vQlsNJJKH0nWJngez5ZzGEPZl5Bk1YdCpM172t9ffDOQbMwLA3z7jHGqhYg0pLCDE87rRUOe1jhIPaQawR955OHYm7zO3HX9ihV14bT6mjoYhms7l/v4RfCObu751DjITCJAcno9Rl+Q0n2uw32HhqoioBlaTXJ4REU1g8hUJG1CQP+oV2wNSY7a1J5+AVLNM7Tdr19tRzG0ZRKrZOg8wAAQQFFFHTM35gMhIHppIOjcNfrpHClovtgdj4frO4JO2W4Zk3ba8OKegQwUwoMSQYcMEBSi0rXp91QcOjeOCRmLulWGBhHdj5ueFB4erlQqCgTpDRnKMZ/u9VkkhO/+kWTlfEF2v/W1XsFYp3c37yttNe/TV9dD6AIQvyC/Y+W+8ume8sxyrHxq2z/XgPJZnkkaFTvNMUCCgEK4+aP95yUxA+sZ6fbCsFyUTl7UCqOgh4OHwl5wvIlcjlNngJV+Uj2kmSCmghh5svEHsjWhIKNjredar/O7IHhv9/V2f2t/m222fu/t/t6Olfua53xHwK3Pa/1d7m1/vvhnIHUrXI++Ioos1cN6CHlDotF0cVKD4QoBmmpGGR71CNgDUEpGQi+IUp9o/23PwEtnBnq8WCQDw1rMgGFuExsLfYrKVVSUJscsw3SM3o2IADumqBnlmvZnewZeijOQEoRnhZRQnMCCHR4hUXHGuWWjDFd6/IaACsEWQExpgEdbbbViQ7PVPv5SmoG0QST3AeoRj4z4Al1a5ByIpj8fIAgGK0L77ySO3iTchvru2hdy/YbaaR9/+c5AEggfPbCs07p0lTxIBLENoObVxgDCKEhXPqlmgYc9x7Ujfbycb0XQUnggr4sb3U8qua5ua/17y/2lPTER6p5gHskIeusXYmZfCfzxNv13EnV2sv3nRTkDKRqKq5IHynfG9pw5c6sZ02/JXCjqVUGyDY0CgkLkTBuPeAbkzLhEGPAQWz6Sz6dDWtmcsl5rXatm3MnOQWz2iwCbfhSHgPNiCVbHkVD9Im6xNgjY0ljtaJvnzcIsTgbAxUwSygGza6w6VAKEbCNbVyMga12AJEJBQ31oQ3sGmjPQY6TLDdp28LbppnWBBUzcusVIx2UhcOHYzUZq4ujbE4BrntuY74J8JFYx8ql0kho5CwTiJkzYMxcZbUxb9jKfP39+NXPmrKhwMjF33d3QfbacQ9A//tG5SSQClW1JsqHZ2jSP18ZF2BtrIzlRpURRakmDar6qkGFlX2a3hhqGk+PqrUhEcuDW++yzd+YmzZo1O+Mgyti8893vyBI4F1xwYSYUWtZr7TrXMjvHs6SEg732mhCFH/bPvCVqHwJ569venFLDoit5T3/3Nx+J9PjI6I18LQu01oZE4Ja2+Mna9ImRaPnba35bfSgqNFqTboHS2HFjq/e++/3V2eeclWsxrPKzJgPRHxRZxQhEDhoPXpFa2aH2n01+BpJA6P3SLax5sMDIYiaqinI806rpuT6Cvo6bW+vQGixMz1cQyBFHHpHENHHiXlFba/9c4cfolzR4+OGTM9eJGiOISIWTrOi8dRjWals4Rb1TuM5yXfB4EIk4i1KnVC97mFhTUpIppXSoGSxKvU2k6mtn0aLFPW5mOVYk4buCUA897NC0q4y1c2Vnrj1HaKCZWpIH2n/aMxAzkEq39HJRbxx2bSCioglK6xSVJ8yLtCno72yDVgkCOYEdZbmFIS2kvPjiSzLtxFoNKhOOL4Z+2223x7/YUjrqOkHMweFOBhYhIaCpxxydFRQnhkSzeMlqwzmROKk6B1uD80ARNZ/UIkXs2C4nnnxCT5YsIhgVUmXu3LlZDki6zP2RYzYv0tglScrNIi3ZM8CKyN7UxzzZ/rPJzkDmYlkwRd0YMWJ4floLoXyo7aAdh7SqeFCximeoOWMQC/FIxlMNkcqkOIHK6fKzSiGIPmG4X3/d9SkJVDEhPSRGLly4MNUoBjWv0i9/cX5IklEpJSxKYlAr9WPNiErl+oE4rO24O1zTpABPm9q+6v7KClaKSNLhd7793SzeIOkScGVbk4FQhgxRU6pfqmSMev1pJf7mONvfN70Z6DHScXJqTBO2jL2/ZcfyHDFocf577rontz5oXlcb6esqM5ZEx+Y1z/Ud0bFjisRCkAizCZwFbJLnAsitL5wJJYlxY+7TX8ThuW1oz0BzBtIGgViIQzVC6eFWyrEjfnruz9JdCjH3DgOcDaIi+fbbbp9SoHDbvD8kCI8QdYy6RoJIK4d01CJqFmSlfgEIjDCcR4B+kx6QlX0hfVxZHJ/S1S3XlUgpTZ49pPBCUe0ispI2lDI+CE17qjmCZcvCloq+qLpISpB0EUnJcwqxqQ6pzTZx5JS0/7TMQE8chA6vYNprX/ea9ObwMtmtSdwCLAjX6b6T9s3vuHQhjjwQf/wu6Si+Q0xI51oE5hgJ0UTEwuWd889vKplrrCp0TGwG0VnL4btjENpakCbwQLmPA4En6v4o8+MaxzgcfLaqUI6198xozmL7e+sMpE7BgOamPf2M0xKJZfWqRJjxiSAUkNH2mvE+CzlbG62vr9UVCA0Ry2fzWsf8a4JrQTnuN+IApR0FD8q95bPcRzVDlOyWcqz5Wa736Tr/2tCegQ3NQGJene5eEwFvjsCcMpsizLgu4EoV3wBQuo1YORXtPy/zGUgj3RhxVLp7K7AJqC9Tph6VZTytB28H01pnqf375ToDSSAQnn2gEBoD2CY3o0ePzIoiPFfsEyqY68QTmgmFL9eJaY+rPQNmIFUsxjEPlNKdiME6dB4o5XkAwlDOBvGs8xzlqfaf9gy8rGcgCYRrVLDt+BOOzQi4VBPu3quvuibdp9y2PFEIiSrWCv9d9khvfWntW2+/X+h9jPxi6PfW3oaOvZDnuLaXqV2v6RfS3no3lh/PfnXlTPtzAzMgkyPTR5zffvvYTzxSLxjkNtOxLTLiKDYH9QoIxDmGMLw09wDfE5GiTZ6n5gv13T0918T1dkYqbTtezhWEbB7LB3Q/gyQrCNv6Wa7rrY3Sp9Kua5v3l++Ol77onyBq00Vc7i/XlHbcn6VVu4vClWCn4817mve5t4CMBtc2++GcnabKPJVz5bPcm212e/tcW9opz8rrw2HXel+5v/3Z+wz0GOkmtUSym5cKrkmFF1F3HnIWz5bAHgISexAEBOIKqiwKCKqM2B2TSwThBBAcRFikVomMu5d00ofiKPBiXePT86SPAB43ZVGBPUvidAYA9c1z9RUSZHwjPuWZQVT/9FObgoX6UafUPxH3b50qpTY9R5ue456SeybBUlXGgmA+S9/0X05YWZmpHUzEM4zJXPjtnzYdL3PpWvOh3/2jH9a2SLD0vaizZb4tA5BSw3FCBba+pcybskvmRalYa1tAsJxcQm1O9VVfjL3sg5gXtf885wxkLlYhDpmyY6O6ohepuroXd1/s5opIvOTDj5ic2bLK+otq20fQslxFo5X9hICqsQvyiWSXYB/O7SWNGjUyXz6k9YKpdKSIkp+2Tl71+OqMwNsHkFSCpF6oDTMz6zY44Lax954t0EizSRG4FJCUm8VGku0LwRGtRERtiKB7BsKGyKLqtleTLQCpuLK1LXNZgqZExrVr6yqLNt7kwXv9G85OBJP7xUaD5BDTc1SI9FxqqcrwdqZSgxeV2ev8tnBymAtzWgjFXNg+ASI77rcxadsirhEjhmfCqD57hjQf3+3GZT7kxQ0dFtkMkTlgvIhNzMpzJZpKClWAo07sfDhz4QRxvT/EkfMd7xTxt+G5ZyAj6RDRBCssfeZrzkgvFqMdMikAh4PZHk0poMfimlGjZMnOy5aJf7VopW/YesAWBSLeEMeLsP0AmHrMlLxO5XVtQYSR0U7fyPfybMjrhdmQRiYwjg35IQAPGuTEBbfbbtdMWoQ4kBJRr4iC2fYJmT371qz5C8GOPOrI7LekxmeiXQ6HYmuxr2xhgAEoaD0nNssZN25sbq0mMxjYV92z1QC2jPeRRx/J49bGuBZSS72BlPNjNyljssaEekrSICLnFb6wI+28IEhzACC0eNOSX16QDMUxCZ2knn55hn1EFsTc24bB82LoYRcOqiZPPjRLr3Z0dmQWs3rG3pUtJHwuXrwkd8C6JfZp74xrqG01oT2RyaTDY24wRFvNYXz6aR7a0PsMpJFO1cAFDzxw/0gpfzjdu1QGxwGuNWbM6ER4iEaVsJgKwj0dE1wAYkoDwRVVVof4BRDSLfFSZNmqgC7f6q6lS7MdKoOXS2XjYl68+I7c44O6UKQDYqCaIFjEApGXRxtPrV2bm3Babutlg22ivUcTobuSk0Is0kSKOw5aq0qbVbg44kOcDwZRckpAmt1ipypje+KJ1YlMViiqU0yi8PAZA0KGyE9zXASyIxhFtDEF0umWGbNi3tbktg5yxCwMI9UQhzHZLVj947Jn+kNByPqmmrzlwQgGyHpeuvSuYEixpVtIOv0dF1nNFooZOyhI7xmIEpHYVs48YGruQSgYDOalYo35ML9tKZJTuME/YaTXNWldYbESZNlnn71T174/9gQEEJgqYq2HVYf2EQES/RACglDBnFSBfPb1gAi4dwELmXBy1dp9XzB/YRIeJEGM9gxxvRe2Rej3EMMLpyI9073u3HMAXVsVeM+2V8htt92eiLZgwcJIbKyzgiGl51CfEJ5kR1IAl+8fyCl5cubMWYlIS4IgS2V6UsNmPZAKEiHItME8O+YK6BcV8foobmHLbPsZQnBARbN+5bDJh6QUNB8Qf+jQkDTRFsZgOzljguSAPQNpVdd/NK53jdJLBahme8X+KfLUqHy3B3PSB8/FNG679faUlkX6eqbjmNW9IbExF8bg0lCJtaUdG7SaF8yv2FXlee3PdTOQRjoRa0JNHkAQuByAJF6udRO4tiWxOCRksQWA+1yL45psNggO6DvA0ZzH3SE43R3I0oX8GwvapyqUfnkOJCoqAmmlLyXZsUiTDbXfJwzeshUbpsBhoK+QiwrSylk9u3WetG2ujMn9EM4cylsjMR0rbenb2uD4uWNWqLRlrhEPMGeM6pJp7BgjnKmtnTK/jgNqIiPe9aSFXayopb+64MJE+DJ+82K/l7Iepr67/qtP3klbxWrOyvrf14uk02MZ1Ja8Tj1mStoJ1ntDgBNOPD7038Oqj37k4+u30P1rxIgRaTxSUUgCWyEsCVF/TawP7+zsSK5Z2xDbxRrxMbkXyLve887cIAcSqeSIAA8++OAstDBu3NjcC0TzXqAXD6wx5xgo69jzYPwpyGnvkEWLFodhPyKfya5K4zWkifXxlhUngcc9bCaI//Of/SKdDrjtOa8/O22vz3/un5OrI0iJj1y9oBBJkbyFkCAaAoB0kNO/euOh2nWbkjHaYe+5t0bMukg3E8C12iakeOdKG57Jg+j5yenj/OZx3rNaga1oPOaTxCjtIDAOAO0nAcbz8rvfHt6GDc5A6iwIACekux4Z68ptOmnHWMhROL61Iib+zFefEcg4IJGUgUs3N/mMzn/71y/kNTwo1LVLLv519Q+f/mQ1bdrN2bZeWCloJyY7vm4XBuyXvvhf1dve9qYklJtuml4dPeXoMOwvSztAuyQCz1AhkJEjR1ZsBwRiM0+lf6gkHArn/eL89JR9N3aDGjfuTenlQiB0dxuU2tLBdm/veMfbUw2kCvFcIRBqFLB56eJFS/I7WwsCFeJwEHKXOfHb+XKsfOax4PyFGBBHfW6d1wiCOwZ8lDbrY+vsOuf1TZv+gafjv/LcPBB//C5GdyHarq76uY6T6OV57mm9v7TT/lx/BtJIx/UQg73NFWXg8kwPTCB6gVkzZ+XSVOWAhgUH5+a1phznH7Ld4CQOIh63wuHZEWUzS14v4Dm2RvjRD3+cKgw75S//8kN53H04OyOy7GUOQfXLfT0QyKSQAxg/fnzq8rXUejgJu6gWvFxbhnoIdg3Hws3TZ2R/SBZeMirK0lh+qwIK4HoGxnf33XW9LLW3ng+aSFeuzWPRz3KufDpfvpfP5j2tx8q55n3lWOu1pIuxFyJq3lMItNzbPNc81v7+7BnISHo5LJ4hnoBbL1myJDlvOceo5bdn6I4YMTyNP4gmFsJw/MAH35fcHoLNmTM3dXm1fhnFvD6A5GGoUnN+FCsTxT6oGl4gyQB4o4D16TwvVDf7BxZAQOPDi/O+97+nmjHjllTjEBZvEOOXNFEdxZZqS8NZABYtWpwxgNGjR+fGm7xgCI8xjng7Ojt6iI4XasKEPfM+O9a+VABhNInjpdLvF3s/n2Wk83gsW1ZXJ9R5BizA4QvY80+xBZy96MJsBsSCM98fwUVeJlm/glq8Sbg8g58OvG2oTpCUWlRcmiqY2LoNaFf5odmzb02XMMNZAIwrFUyatG9WVrTJ56RQB2++eUYe94equFPEZeji90VxBqCPvHDcvSuCMNhVBVQ+0QcEQ6KxtaiXX/zPL2cMw7hbuXW5t/358p+B9Yx0nFfEdU13YPDm6TcncvOgEN8QhSiHNOwDejNk5nblqu0NFHuzQpFLckPAtQr57XorMPa5z36+10sZ0FQixAUQAcNUbOboiER/59vfy3X1lg4/F7zurNdGoGxmVEiZk5cZkzEiYPEgQMU0zjSM80j7z6Y4Az1GOg4PIej1vDaQZfnyR1IF8rsgDN2ea7IYlbhzBriCQHD9yYcflhx97NixGQk+MTjywkWLMoZCbaKO7bPP3unpEmijMn3h3/9fzr3yP9Q38PFPfDSvUfHQjrCX/+aK9IZdddXV1Sf//uPVhRdeVN14w7S8dkoY9iSWiPUHP/T+Ou0jVMV0HoRjwfLh2bNmpxr3D5/6x4w3HBYRaQQiICdmAhApSYNYVIDklGirLTk1m+yfNNLZAdQLSLFq1ePVuT/+aQbhph5zdOYCOU96CGaRGMWrU/Re54F0C+VGh4eRrxQo24M9csXlVyZyu58X67EVKzJgyI8vNUXkOiGcNPrAy8UVLAqsoknf2OJtvwP2q54I4lwdkWa5VWPGjA6pVnuFSBXILZApxeKOO5aGO/iQjDlQGUkB+UkQf+oxU9I+QjygqT7V0nF1Mgbf28SRU7RJ/0kC4aIFxx1XJ8WNjDq4DGq6P4AoiIBRToK4vok8xUVKGijKpmrinVE69Lxfnl+tDMKz97gMVapQpk6ErfJY5E/Jy5L+UT+9SqObiiXFZf68BemSlXoiqi0KzKPw0IPL03mA2M448/TqTW9+Q7VPtD9mzJhI65iQqiDPGkK97bbbs1CcKPnSO+9KWwRhsavuDRsKcMU2AcGIBbWhPQNmoMdIF6jigaLXK9ggcY4hjlAEnCApYAQjkibn9Z3KRZWhEklElOzH2F8Q6R+HBTf3yd16y8yZ1RD6fXD8rfvV+5XT+3F3hrL4iHQLeUQIRdxCJH/p0ruytu594dGyj8nvfndtZB6PSQ/YoGhPwiSj3T0DQzo8FPETEm3GzbfEGAZmfzs6d8+I8uFHTM7jxlEH1XJo7T/tGXjWDCSBsDF4cqQkMNK5TRWfviuQUqYsA/zdEfWeOXNWFJq+NnX74r0qLSISxxjzkvrkCoFiSJfrEAK3LsREVFk4O1QmLl3p2cVILteX+9lI1MACJXJefm/ok0rY7KvUC89gY7XVqA3NWvt4mYE0HtgCEJHqMWHChIw4Q3jBNdwbgdiERiQagUBW8YamFKFyQX4gXsLYtd4CMMapYZBVRFfqBMLwu0gfahuPlKzeQkDRZBIRYnDMOW1aC6IGsONAGySHfjYlAgJAhOlejsY8j9QgBR0vQcVspP2nPQO9zEASSG2crkrD2foF3iaS5MCD9s91Ce5TJNr2BkAF+N64b0E4CCuwWOwUx30vn9lI/IH0TXCf5wI2S4HSbjknSbK0V65JadT9jHKs9bM8vyRStp5v/27PQOsMpDVauO5rz3pNShJxBqkXJEUBWxRQuQBOXJC2nG/9LMThePlePluvfaG/e2unt2Ot7W7MNa33tH9v2jOQEoSOTsWaESqVNR433Tg9vEL1qkGpJ7Jzh0Welcg2aDXSN+0pbI/+5TwDtZEeurogoXgEz5Xlq2wI3igLjej6PExA/KA1M/TlPEHtsW3aM5AShOohziEHSYT5zu4sXd4ocQ1LSqlbVLG29Ni0EWZTG31PRIyBbE026SDGIOVc7AHwGDGC25JjU0OP9niTQLhd2SFvfNPrwx2rCMKoXO45d868HrcrAvIPNL/39jsv6uVPq5Fc2uvl0uc81Lyvtc1yI6lXPG3FndxzrnscxTlRjm/oMwTsBqHZRn7vvla/PN+/5wPXNse0oetd03xe8zrnxLN6m4/S9vNlCPR2b3lGGU9pqxxvfvZ2v7kH5f4SCmje93zfzWFvz20+r7TfmuXxfG0/3/msiyUOogPiFVypUkxk30osLB3zWTxXvnPDlgl33D+TIR7hHKPfsTIIL1YgELIVhPVJtQPOa7dUWywTa3IkK2ozTud1JtlEiPBrE7jXtZ6pLWMSV1Gyx4rCp+O3dlwnjmJNuuwAqqN7WvtrHOW51oZrW18hYTw5n++3teU+xVq0J3HTNeaGG1uOWEEK2Qr6rH+8hGWeOEa2iHXsZS7K9a4zTn33fMBW9Cz/ipvcmIAiDSqVKIDRPKc9z8uqLhHrMl7zHCsP8v14R+bbXHqWtj27fn7dX9erAVDOlfZL28YijqaftA2fxmVOjMs8s2Op6PrieZvHM8TDzL17gL747dmYnO8KZLjeMXNozT8oz8PcZYR732vW1MXztojr9NH9pa950wv9Ew10ReNd8fCumGj8L//FFmr5GZ3ock1MRFdMTlcgXFe8zK4ItuVv52LwXWG899zrWu3EQLJtbZR2f99PbWxMO+FQyGeF961r5KjO/B5LiLui+FxXrOXuionu6UvnyI78bgz6FYjfFdUZ13tOOffsftdzFUuLc36cjwTLQeSlQQAAQABJREFUnrb91peOzo6cV3PW2ob5bD2mD63HzG+fPn1zvkO695w3z+XduSbWtvScM07ztd54oy/aLu/Hd9e4tzwzELvnezlWPo2lfHdfmWvH9KOcc7w8IzIyElecM1eR5tNznWNbblnPQSydznls4lFpb8SI4V3B0Na7r4mrkb+X5yLdKN9zua/gS1SkzP55ly/0X82+gwGhsqnHTMkVhSSI3KZ5UYvp+utvyKxYK/YUNTv/vAuqo6cclZxRcTO5UzJm6+WxK5IDSVVRZcM6EF4wXMk68rHjxlYkUzH+Xxnr3C2yUmNLtQ8R+M7OjrR1cIuydRqufOMNN2WxAu2oNDgjVhNKZ5FYec8996TkU5bzzjtqu+mIIyenHSW/7KCDD6ouuvDiXJ4by7mrt779LemhU6q0s6OjuixWOHJO6JvFXuZCcQicT4aw4nTK+eBSOLhUFSVCd43luzx/CrzZu90Y7KsoQ3larK8/9VWnZHuKV+zWsWsUbtsiVNm6xOoOsRZenpiKijigvDLJmzfecGPOk7Hph1WNVmHisEcdPTU4+JaZ1ybXbVak8MtQcJ3xmucnQmKpmzUjFpEJ1taq8xsy8wF3ds5cHHzIwZGx/UDWCnB8TDzf3HLljxkzOu8j/XDlQPgeKbDvvntnUQ/2KOmp2qPMBGv/s4hfSJkbYgzg1NNOyaCznYUtR1ClM4gsyyXttfdegTNdMbb5USnn0JwLkpDE8S4kmLqWVnNvvF/49Iufn5fpUMYp9DBx4l6p7cBD2d977713pkkFEeS7uOH6G7MtOxobS4iknC/P2VhIAiHmvHxVEF91+qkpRm3ZTEQCxLFPTExpWJWQa666Js9ZLDVq1MjcBFStK/YL4gqulEa+zprIPSfsmaqG+IpiCZDRSydy1cYKjhMidPN4Gdukq1nmr6i+4yU/i0j2wrGLu2O33UMOOzjVCmnxfQOZId+ihYu7+xWIGGJ+TUymLOSFCxbmZGf9q0AIeV0IROGJs85+bZ4T88EAILpER0igWIW1MNQSxSioSGvW1MuCrZTkwEBMXiTVa2oQk+nnEeyKeyAfoJoo2aqPQ2P+/DZH1vbfFMRvbs3T8SccnyWREB3inzZteo/6YeyIFrKMGDE8itPNjPuy+WzX9/GRDqRNRKPqYg1diSCeKRfNPpSYlFWaixYtTntTGpHE1H322TvXyyBeqy29a+WZvOeQYqnmGO/FF12S79n7NkJMC6P0XnN9UDA7TJMX1HO122+rubnC1Pbc4+OdL4riGCeeeELehyFyEk0IPLEBrDlSddPiPXMGj2wR6F1gpAgJbjiOEGV3YJD21JRTaNnEKaeelCELBK6AiH5gUtTvjYVUbOmEKAyisEG8VB0LEdXTzm677RYDqutiqcNEMgBVRaw75/Wy5sIbg/TamxhcwksHXu6tISlwPLqoIhCKuuFQOp5SKJ6r6Ny9kbErdR7BLF26NJfQKopGH7funIRjH9C5rwvuYcDDhg1LJMuHxR+FnhWXuOeeu5PbON4vngMghre6MibZYilVDqXhW6MOURW4UzER46Dz3hGp+3W9rS1SgkAUmQWqnyAmLwCxu9a9S5feFb/rVJlip82ZMzeJP6VQzI35Mw7jdM4LhdSeL/5k3tgybKUCziHomVG10Xc1hunngM5PWppPkrfYZs4hZG1bSyPLmU2l4N6SqDuA4OOlxXR0pcSBqPoPARGR55gs3L6r65l8194XMMd5b5wr92FECB+QgnADMWgfQ4LU8EKxPtnVcI9kIT2BnD8EpF8YGzzCnFzjuTLN4SF8svbHPHUGI6nne7MkCJqPhXAD4r0si7lYsGBBMjHZ5JJyzevGQm2kxwBNIBGrM4tDJYCAqiCaKGvHNY7CqVTKb0IylQAhhiojEGzlYysTgaSqQBZcEDCqtAvpDAoyL1u2LDh0nXBocrxYqgju8NijK7JQA0J0n0lCXJALV7cQC2IqsICY3euleDlELxgTRbgRKgPdNQhYIYdVK1clh1OJBQdTHpSKR2IiPoZoV1gjuJC2fvvb3+Ua+plB0LvHdhCQ56GHosJhIKa5wWEhmpenrhaVkTGsYAQimjdvfkpAfaAeedHWqgi4knZPxbyr/gJxcPdbQ8VhEHvxVCscL3fsjTHh1hBWeVJzan4laJoj5wB1BgOCnIiPVMPhEc/SpXfnXLlPO4jSGM3pNiG5tWG9vsozEEtRDYHjwYOHZJtWZeLm7sEwPIe0QELTY3k2IkWM2tamYoOPxzhWPr4y5rTKFZyqSXqPmJsxTp82Ix0ptA9EpqIMZukcfIP8EmNpEXdF/+EEJuvdwydMxnnjHTxkUKq43s3akHjup4VYWyS/EG5RlWlG3sdGQYioNGDiBbnjWf8YOgxy52J9eVcQxbOu6e2+fv227go1pedaxl9vBmhMSldHR0dXiOguhnWUDOqKskNdUdStK7hA1/Dhw7MNxmZw6p72enumY0HIXaHC5XWhpvVcHwjc873cWwznqG2bTopQi7rCFkij2qfriuEbyPKs+8Pu6Jo0ad/1jocK1BW6eBr75TmBEF1RSbLnOmN2zrU+n29c3kEwgJ77S7vBb/Pdheeql3O1Ae7eddc/+/2WZ4c613XgQQf0XAsvyn3BbHq+l2PaDZWs53gZi+Pm+vmeW9op78A9nln64/zztRFSpuf5pb3mZ3FQNMdiHv3e2H8pvwvF26MQJ8YZhwZntABpQXBlhulfffgvsnI5A1wRNiJw5MiONEa3Hzo0ueu5P/lZ6o848Xvf964MOJI8MXm57NZzJuy5Z+qrdOupU6dk9USSiM3BuKWTsgPoxIw/XEI1kq9/7RspVt/y1jenqkAX1TdcYdHChdURURXSUmGrDBnWrzrj1OTW24SYHTNmTPU3f/13uQejhEt6ujHR0UmnY499ZdoaV155VdotDO9S+OGkk05Isf9v//Lvobu/OhdwkRpUH3YAY1lVFVXdVYbkyFDoTiFr54vqxFYxHtxeXV6qKQkXLyrHpRSrNlNV49YOLhk4Ev/qxWg4Hqmp8DcHAdXEEmRq4FNPPZOcEgev7aNaLcLtzbl3SkLh6n5rCxf1DKpKIGJqDYsWsUfWuWqlG7kWBy5LFtwP9PPpp6NCTUhz0qw5FtcwpD3X/dy1xkvSkxJ+5/G4Th9ITM4Nx/SHauc7dZ8EYP+k2hXPpdY5R+MpbcAvv4PI0gbRN8+R9W0Rn/lKXIprnCtjyIE8z58kEI0H5eYehWe++vQ0Rk32qNGxkWeoH4BKQHwjonDNhRG7W3Zi1KhR+ck4A4iDt8rLvC6KO/+ff/18ejicMyBqB2Kgj0JO4n6HHQ5NtU1VEutRvvfd71d//hcfckuK3PETxud3f6wJOeaYKdX9oZZAn4kT90rbgdg+t/pprpvnRdHPzTdblkadF/CmN7+xOiqICMJSCxjpVEnqDuIbPWZ09eUvfqV617vfmche/fo3+UyIRe//6Mf/Z45zzyBwk+xl3HLLLbl234UIGYwPfRvhAoXnygvxUiBoAQTqGILxmcgaROQ7JPHZBL+pJcD3VavWvej6d/emOY37Shveb3leafOp7vtdow/mD1J5tt+A+gYguhWmreBeanJXV014Zayu0w3PTYjmHl9bx9Sy7Zru63Pxl11Q+uoTQlMN/d/a70L0PTfHl6yRENfqO9AGhuQTA/VZ5t73FwK1kR66MZ1PVRJU/uMfnZv6JDdhAYaOKuKo1YY2Ib5SX8ZZfFdGx0QCWyggBtwRARx44AF5XNBuwfz51V/++YdT/6bjquHrOh4LwPYBEBOnYWiVIhGOI1xV5E00L4/AGEMe0pMeiA4gALYTAsfZcX06MyKns0K2ssWA63ueG3NRqq47zgZgb6kamYG2eI7MA/PE62VMoKxV0b/yEp7rVZRr8ubuP+VY+Wye893xcq58lmua58qx5mdv1zfPm8+CYOV4abMH0cuJls/WtltO58/1rmmZmPXOxdX5u/uaXs+1PqBxbbm+9bP1lo39nQRSEJDYDqs9feKMaHWxCtIzLhlvDMvVsW/G9Ki3y/C1wpAxqfA1pFRMwXExEMUUGFeICwwI8c17o80ffP+H2d7cefPSILQfIuAYABCPwexaRSAKeNa1114XatS16e2xEYy+2QpBBfNF8dypx0zJdenUq+uuuz65/bSbplW3h7TA3efcPjc9R2Ie1APcszz3sejvjTfeVB6X6gWvDylDvTFeXhIE8uUv/Vca64pgM2bB7Nm3JuH6DunKi/K7DS+9Gch099JtL70V6KREL7vk+YCeRxclZRCLe4lIwGbhJuTj5pLj/iuA61K7uFkB6REGYLpgUyTHMW3rB+7/QoBnSFAOYbVC6VPz+P777xeenIUxXhvQDMwYUPN883tZ3+6Y/pFe9PYDDtw/CPj6lMrmgjRtw0tzBtLNC0G9XFJgwsQJaW+I8CIYHJ8KxQbxonF0OjkdHCIjAscYmYhCW0Qyw5suyWVHVRsd9oxqJIq7jRkzOqTCnPi9Yxp5VB+SBsIxyoh6eWCIY9Sokely5RyAhJ7xN3/34ezbOa8/KwNQN4V0ELxyj8J1YhHqbwlY7jVhz9zch9GtGrwYw/ve/97YlWmXjEQLgDJmGNuky3vCuRCes3A+TMu+Uf+MJUg8qz6KbFMN9VW/ER+XtrEiBno7u0bf28Tx0iSKZq97vFgOihmIANuByQtnbEMa/nuIQhXhA6ea4OYFEI5/CKl8UrOoF9phvL3q9NOSyCBVZ2ekh9x9b3XppbUhfMqpJ6fXDEEedtih1bRQ7b7xtW9m8299+1vSxuDTFi8A1DjX8k6pv/u+D7w3dmCakNxeXS02hz0SebMQ65KIUwDxF4FB46oJ7a/TnqLKIQLBSARUxiZotTLmREATsq9etjoZQBmvY/z+mIJ/9dj7pCOBTed3G17aM5A2CG5HIkBekUouwILshsfFBlwDefyD/OUf5HCMOkUSQY7wqYcRvFNKBsYyriu4xJU7aPC29RbR2aqI6/Iwnu9OJBM4a6YCCCB17N6ROT/SPoD2EYkAn1wxUkZQ7IlIAfHJiBZIsl0c4i4Iz5OBgNwnV6ojPHGi9iSWPQpJw5rrd3csPozRMVDGXcaLAMqxvCD+mEv9a8PLYwZ6JAjbQSQdN+WqHRdc1u6vgBGPY+PgrQjhfEGUvffZOxFS/o18n6999Rtpk0BWxj3vl9gD+0L+VAGqk3gJo/eXqjE+tjJVLfYG28cnu4WUkN7BozR+/B5paNtqWZ4NN+09EYW1N0m6csOwhqxUHtXepWWInRwUhMu9q1D3RRdeklJjWRAu6cKxQAWUBgHaEqC8oU33c6OMdGoKZCtSpYk4uCkfOZXmPe99V0oKAUbuVXbDc3HTiKImt0ecgIELuQsXZ9R7bhOahn/z+Ia+k3okiRSX4gvf0LWOK5O6OFQye7azLZpjfa772udenjOwXtGGw4J7yleSS7VHZJ5efNGvU+2hZgCqSFE3WqfDccTAS7Vs2YM9yPje9707bYKLLrokjV+5NmwAEU6SRjxCPg2pwLVMksikFQD8z//4Uv4mvUiCfrGgRy4ONYkqJ1sW0dYBqtpLph+iuAiLE4HxjwAFJsUtSCQRa2NCgLRHw5MpTLWj7imWncXtulXL1rG2f286M9CjYhkybxPklTTISyO6DumpVbxLJAk7pZWrilmIQ7zpLW/MzW3EFHiHeHOsxbAPoPq5EBQXV1ya2rVzVIF/OBDynz7zv5I4zg6v1KR99w0VaHGqeNJKvvH1b6b3ChFwIugLw9ynfzxXPvXNp75BfgQiikoKGAsik0yIgPJ8EIOsTsQk47aMibon0U0KRxvaM9BjpOPEgl2kBGRhrBcVA/JBKq5eCFaQqUyfc2BQINdVV14duVPbZFCQJGEQX3bp5enuHbbD0CCWoRnMk4ZCYvCMTQhXLBgdaStLly7NPRJ3Cpcwwx7woAEEAEiG8r0gfPmk8umP8wXxSRDH3NdzPgjHMWP06bh/CLhNHDnN7T8xA0kgEARhWLhEYiCEoZEeLXjnOD0e4gju4cQQqQnyXgBPlPP2IFy0aHEUoLsp0zQYvlylOLmNP8uqPSvFbEOwotvrM2PGLRGfGJ5BPRvkiFwz7EknfWxDewb+1DPQY6Sn1Og2lksnEAZQ5IB3C1BBGOXypAq4l2tYHn4BcYV+IR3EFexbSD3aEND52Re9ResRK+JsE8iGZq99/I85A+sZ6WIX1BCLSqwOtKbXsknc/y//6s8zz8hSS/YII7kJiETMwcoz6g21hvSRfcsWQGwkj5VljGFqG7UOoSE4NgMi8bluFV1XGudt4mjOdPv7n3IG1teV4skW768IScA2sPYZcQBBvnFhwAOEgCCaAImlPjOmEQdCQQCIAzgmkIgYEA5CoI7xYmnL/c75h/hcy3PVJo7mLLe//6lnoIdAcPeld8Y2ZaHO4OTUGnEMhALEJ6xLBxC81Q7JE40/m29Rq2AQvPxrXQtcjjdu61kv3Nu55nXt7+0Z+FPMQBIIDu7fnnvWRvresaheesjTweUtNgLiG3PmzMnv1m6QAM8J6wuY+tLejrU2sjHXtN7T/t2egT/SDNRJRtE4N+lNsQy2GNMCd7i4ZYsA3pZ9xSX6OdeG9gy83GdgPSNdLpXYgfjFiBHDcxERO4GaJUAI2l6llztKtMfXnIEeG8RBK+ekeGwbrlVFw6JkZ9obzkkC5OJtu1zNRhs2lRlIAinaknpXbBHZravDi8TlCxRsk1FbItKbyuS0x9megSSQdMlGsE7KOCJQDMFyVNICBM1kbIOdAniwihcLQTkuZYPhXqd41DlRAoyuc4zN4jnAPa5ttuFYb+B4+YdQS/oLF3I53ryvtFPOFW9YOe7acq58b/0s1zY/fddf3Sz318fq9SLlWm0VKMd8bux4m/0t95f2jB+YT9DsSx7o/lMcKO5v/nO6vCNttbbfbKP9vZ6BtEG8FIQhOChizg4RDJwXbl5LaaWSqO6hPAupYpLFO9gmkIbRDiQjyoYFahtZvQeRuYXlU1HhJETWcZS68ogAomCh1Hdtak991VJIwv2JmOEmEDPRlr6RaNZ3CDg6BiBO2SLaGBC5ekva14b2jbUENMs9T0VNV9F8SYqI3ZJdyGfMnBSKWVjIJUZTAp6ZSRAXidV4vmXH5sX9EM9zfDev5ix+RibyqqrvVjGe6Je2lfqBqBiHNvTZ93Kv+zEp/TY2c+J+GQvS/h0r96iq4hnaVYPKfaUv+mX8PvVFSU/jVQmGjel5beh9BhpG+uoIEo7KSVf1Q8nHJ+PlSklHCIhD5ZGy/FT6uOxYL2/MmNGJFAsWLMwCzZL95s2bXx1+xORq5sxZSSzLH3o487ya3Rg6dPtcsto8Vr5DAFCKPvguFV5dLXV9LXhS1Rvon5fcvDZPxB9p9WopQYRsM3DBWH4fUL4TcjVBn7aL47dEHhnkK1K3eU35Lk1fidbewCKyVav0ceskFoRVQFY1JiSXzdIAC8csSWim5vQ2X+X+1k9FtDEbZVI5XRBXkU6t127qv3vcvCGwc1Ud41zAUAGH2TNn5+pC3EeuVez1UP303J9FBfLjElGWxgQD3i+IYf25vdStCVfufodYFksCqF2FsOoSPrdX+0VlRjWmrApctGhxvqjdYiuB++9fFlwvuHa0pbo4UKVQ7a358xdkwTglfqybzyqDwWGBcj/Ai58QmcGI03JfSKYe1s7x/Vvf/E5yUIgxZerRSdgISiGJpUuX5jr5JbFQCsKrgyWNXuwHgU8KZ0XOydFHZHYyYt9xpx2iPtf86ugobqFPCAQDgcSeu9VW/fIaqf/iSiSN2reW9iqntMcee2RBjJqzP13dcvPM6N/TUZH85JyvCy64sDo0ClHMjvvNJ6l0WmynQMLIglYA+qqrrsk5RPy2HwAqUqorPGfO3Fx/Q8IiKkyEBNG/VauiZlgsNVAdftas2XmsLUly+p71p9tIr0WspbYqBCplr6ZUKYqGUyk3+ngUIQYQ3n4dJh0oP2k1oNSU+yM7l6oGyVUZpwYpFwk5FEUYN25sqim2WqAmLV68uDokpAGExkURREl6dB8EZxsdfvhhKc0s1fWiSQGeNfeUpEptUKvU48JRyxqWpUvvSg6sT6NGjcxCzlY9Kh6hLZ47n+PHj8++jhgxIvukIotFZIjZikTcX1ty1nbYYce8RtFk9wJ9smxZGdIMtsZ47fuh+N1VV1ydKqfshMmTD0viU4F9/wMm5b3UPPDYY4/mkmCEDrnNFykNHg5EV/0eMlNVpx4zJZ7VmYRAegH7ZFjjIuuBeowBWU5sXxDMABFazy+dSIFvQK0utl0eaP/pmYEkEC8CkimTo0CD6oPS3nG3AnUkfV5u+CLtBMiZSsIJTozj0tWJ7FWhDiAMCNmnT103VWxFFXcp85AKeMk4GVsFcUpiXBn3KisEdoqyQPbksBWDOrQlSZIk8ixryxEFNQpAJCoQu4Mu7tnUQGoLNYUaBslA7C6VnL6Wbo8msUKeBx9UdT6qwgfSIAYqJtUKkAKeh7BtieCz3jMkT+f4EOiWITWl/j/0oGIUd2W1FfbNypUr8n7S1MpKiA5RjaeAe4o7HZE3k0IlkZKcRSq431yqal9A7ltZP6PQ38pgbiSwdtgsAwYMzHGQKiQ+VfXgQw8KBlInlJZ22p/1DPTUxTLZ0tItmiJ6rc1QuofxSCJAeJVALMUl8hVRkNKOCG677fZchQjRV8Wkky5PxoYmt982J8vfU8VUI2S3KLrgZTH8l4T0gLRXXXV1Eobr3AuBtIuzQVSJkji+DXFkGDunFjBjm2qzbNlDSTBWQkaDuYMRArLxz/RQZ6yXdxwBUasQgozhevuBp7JtZf8hmzpg+gr5pdmopIgI3F8kG7ULEipFZEOem26clrMJAUlb41CmFZNRlcUcsiHMj34p3I0h6V+dMR2rH4PBaJMqRypSKRW5pmoGz8r7ktijJBNmsjwYwaxQgY3Ju/OuEuJiEmxJqIvmHyF4V2lvRCE8Uv2Ky68Kp8NTsZ3A0kwnskWB8eo/Va4N62agx4vFW7NjcGzcmuRQPA0HJRnKjkpvevMbUpdfd/v633BP67yBfURwOjV7AU5dMnvzQPzZL6oYeiE2thkfeWAKPdh9ik1Axbh5+oxEkgeDABwrQO3gLSOV2EoQlfpA91bhREYyVeaFwBFHHF7NjxKpForxhCmtuiHA2RGaMkQkE+TiYbqm2xZS5xdRvP4NZwd3X5TlT+n+CIyHrnj2tI9Q2CzUVXOBYdTcnuSti2R7HwVxEQOIFNC0CzELYPUlLxtiTptt3oL0lm3dP9bxh3QAZV8WzMG7qZcc1wWmSTHE5vltWDcDaeWaFC+OnaBulWII20TUnN5N3Vn2wBPVP37mH3LZLOOPNIEkiitMu/Gm9OIoBK1sDxWEFDohDPlf/erC6o1BVLjdBedfmISHKM4441XV9JtvrvabNCmvoadzEdP9FaD+/vd+kKsZC3HS2f/vF/4jOSPp9d73vye3i/NCi1F71NFHpd1k/UlH2BbUDsgnwfKYY6aGZFsdRu8hQeDfTpVG/8vGNYzeyUdMTuP+nEDqy35zWfWZf/p06vAffP//qN7xrj9LVQ1hGtt3v/P9nEHzdeRRR2Z/ncOBbaEAzOM+4by4IsocsQ/SvR0Sidqn39Q+nB3iQ04IC/w2Bp63vn0HpLQsxOE9OZf3yY6L//tFm8VNjPBIQdJEm+5jj1B7uaURsu/lWZ5XCKJNHGbj2dBDIE7ZO4OHqPaA7JIbIBYP0fKY3LtjiayX7kUQ49SCVxz7ipxw9a4ch0ATwg2JI1IP3vCGc0LNmZFPZsxyJ9pxaOyYMenRkdbiJbFPzv3JT7P9X/z8l4HkHdkud+bEiRPzfsTBEeDl7x+Epog2vRySUmHYHrxDVJMTTjw+VLTHcr8+/n6bWiJEfTw9CFQ//VOd8Yv/+aVqYLTJPtIOhKMeOf93H/mbvIaqAtG5aqmc1Khvfes7yRDOi1pe4z78F1nOVEdJj1NOOTmXEltRyTlB2mHOheOXavA5sJY/5RzJ0gQIX86V408+WUtsc+i88VHVIHwB/QHOle/lXPkshFJ+tz/rGegx0iE0yYA7sQ8gMy5XwI6oue1VcKTRo0fni543L9SYVFk3y3tNvnZsI8YopS4hNoY8kCGsGN1nPv3Z1MN3COk0+fDJyel5wQBkBjxjgmBUJ1u8FTjwwANCd384uTtXKjsE0g3adlAitCJxyx54MOwYVdqnpZ5/e9hIl156WRI0DqqSStoN0fd6Pf26/SMGDxqcXi02CYSCaAxy2zjwYnETD4l5AubBeAHiKc4HvxFXWRlpLosUcO6PCZ7TJI7ms/5UfWg+86X+vcdIp/dScR5Y9kCPx+Pyy65MjwpO1if0ai+dkUfHZkxTURAAFYWnRwBP0QWGK52bDg1xENKCUHm8OJ4gQUgISo1zXKYwycWXj8gY2+IpiEnQkf0hTwxA8C998Sup8kA8Xiv9pHfb1Ym+reADxCetpk+/OYleG9zCjGi2Tp8+W6QhzAgX4+HRGRYEzLVNMl588SWpcv78Z7/MWsX6ySO1JIxfksw4jI+kYTRTqS44/1c5XmNWzeWVr3xFGtCWCbARmiVVX+qIs6n0v8dIh7x06GIE8qHjgFQOujxE2FgoqSBF3y73IYItoy0GtEonIvb04iaQNojrisuvbB7O7ampPr/8xXnrHf99f+gL9U1JUt65DYGFY5wEXL8FjAsR1EuM6y3MGO3FvWoezRuG4zsJxOZB0G14ac1AI9VkVXqEeDpIBhIBR07pEQhB78fpIQYuTv+Xs8Sf4hj144CD9o/gW0dsjvOjlAgQkL6PCBSR+5u//XDsGnttxlsUqAOkxG/CKGY73BM2zgc/9P6KTs+9iyiLSxhBCXD9279+ofrs5z6TrmUeNxXYSTXIZ4sD0WbErmCd9j732c9Xr3ntq9Nm4LWhIvGwPRESU8xHWSF7DJ519uuqf/+3LyRSux+RCuTdGu5a3qrPRnE7c0PCmRPP412iYiEGBIC5UGP8o54VptI0wnPQ7T8vmRlYz0hXf2rEiOGZzUtVsSH9vNjurFR7F9RDPOISJYgIUXhSeMGOnnJUemmMHnEA6R8dHR2JoDw5NpcR34BAVCrR3A9+6ANpqN8QldoZ6+IwZ53zukRItbVE0xHBA6HKITYcnJdKHV0eGe2Leturg4v3kosuSc7NgP/Upz+Z6SO2Qth30r5JfAKil176m4xm4/AIwj82EwITvDM+5wT81OfSb2ohgkAAxSg2T74j5AJ+a088gxdJH9vw0pyB9Yx0doYXi0MiilGRxgC2jDXo7A46d0GOMlyIRH8H10e1RJLnlFNPyv0OTw1ko9fT9wXdcN/i93cfrxIbAwLNC7VL3hLElxZBTYNo3L8Mdc6DHcOGALYsEGwjuQYMjF1MI7dICgZkFky7KAiE9wiibxXXCNbdE/d4NuLC8Ukjxr3UFUFI90F+Y+FkYOTbSsH+2kBQDxh/E6KLG4SnYlyt12/w4vaJF+UMrGekjxkzOpHHnhs8WiLGDFaclCEuwu07xG2CY4iK+xPiM2xtM8C9yziFoCLDUuDFRgQhqVY8VhfHFgRzQv2yf+FVEUNguM8OBBXw8klieBrDHEFRZej7+sr45VQ4/5cXZJGJG2+4MQlpwYIFSZC2cxY49BxSy96D+o6QEIMI+7bbbJsxGUS4fPlDeY40EKnnlEBkT4Q6qaSqOUHkreNvzkX7+8trBtIGMSScDpKDmpPWKoNIMYQRsZa6wGuEIJrgXhKnpGLg0iTRC4UiXXq7r9mn1vPNCL5zEFncYmNBUiTp+FzAjjCmNnE81yy9/M6lDYLr48qIQDyCP39cGNG4vgAgkME6NNSlH//oJ3kNaVKQxadUFYgpduJ+qhaXKmNX+gmPD+6/cqWdawcmsolhyE+qVbB+qcbg6gJ+JIhoMhuHekbdYTvoJ9XKMxNho+9SLESY9akQqqS+JKq4vmlAcyogBrYB4pcfplbwoMFDU+XqG8SN4Kl03MT67VmYRxnvyw8N2iPa0AysZ6QzhK0H+cXPz0tkLzk8bhYoKxFtWngrstS2SF0R0Xeqkc+ywMj1CKYmxlo6QcRaPRO5rjcAlTLu2jryXKtyShHxQFmn4Rxj372lD3l9BAddQwXSJm9VaUvMolxrLL77p4/aRKC8cI5pt1zT/MyD7T+b3AwkgTCScdknA7m4P6Vz4No8SAJg0qZxXqpTwvp2as+kFcRzACE0P30vqpnrmtC8r5wr97tus+4qjesda2kDceS13cd7azMv6P6DELTX3c2e/pbnN69tf990ZyCxCqJQXUZEUAznFu+QlwUKKo8aNTJXn+WxBqfNi9p/2jPwMp2BHiPd+EoUvTlWxilV5fgTjwsj/fZcr0DPb0N7BjaFGVgvkn74EZMjSj4w9XIu27mRCsLVaoUbqWINAqOW4dyG9gxsCjOwnpEuNaKzsyPGvVkG6gTrAL186NDtM4jWdnXmlLT/bCIzkDYIicB1KgvXegNLb62lIC2AxTa8TP9/ieOlagDXxnyxxtZhhuPFGeD77wMvdE6e9/pnd/P36Vb7nu4ZyLdq0qVdSEMnRSwGsvWB9AugwBmwFBXwZvFIFTet3+VYeYE+/XNP8V715kJtXp+Nd/8p95fz2ijPb55rIqlby/WlrXJt+V2uKdf51IYgZRPKfc5hIBhH6z3SUpzDOFrjJOXa8rzy6bi5sja9hnVu5XJP62f3hfn8nMMggnKNc45pT7vU4EKszWtKG81zzvf2r1xT7tmUP5/XSBdMQzySC+UwSekuxry1E1I4CohoC/55Ua6BOAVU8iOJSCpGP0Pfy/EyfDpm4x4v2+8aKeu12nk+vGzA8/3O66I98Y56v5LaVc0bp019AEXqlcVPCM0xrm1t+bR2pKwVd7483zNcqy9ywjAP58VaVEcU1BRL4ciIHN7MJPAc94EyNtc7rh1BUNcCc1H64TnmWVuCrvWejSszB660gwi147druOLdb6zeDdA/x9iN3oEcOssEyrxqw7j1qY4ZrSPWHJe2u/uhnU0d1svFklIuu1bO1IEHHZhqlhI/ouOQw3kZsupU7RK5SyplTJiwZ6wfH56/FQjgJjbBFjBZeVf2PRw8ZFDUipqYae+7DN85ObKA39qofuLFKCskMOnlQyT/RowYHlH55Xlelq7s3QULFvYQiAi6fKunY/WinC/pJbl5aCCO9BhIAVEABDKOJM5AMpF+yA0xRegPPuTgjPf47R+kSw9eEJxUeGWEZCiTNJbdSmY8bPKhkaY/Lot9H3fcK9MNjrgEHiEXwlsT60iSKUQ7EFXW8fjxe2RAdvGixdUrj31FZgkIosqeFliF+OZ7pyhOh+loy3gmxvyNibk3B5IovRt9dC0Hy5Ag4tFjRsWYt4lFZnelilxy6cyB+bJnvXkS9zJu4zSWQvjWx9jdeHEsWpPD5j1syrCekS61Y/To4ZGBOywRQnr4hb+6KF+QioOQWNr4lGOOzqxbE0cqSBOHVAjFElreLwXMrLTbMwjIS+QFk4piSezkww+LRMO5SVwSASEAFUZiYUkZOfv1Z+VmPvvGAqr+3Vm22i+pJl6odPJ+/aLe75onYk35wEg0vCszf6+99rpcT4JQZevut/+kXAFpTYp7To714rfeems1cZ+9MkP4wUhjkZYvOVFmLzju+FcGgvVPNVPai9WSAKHZFuKoSMtRlXDUqJG5FFm/ODJUXXw8uDTEh7gIFFEoJ2Qc1q9YHmAurJxU7ML4pdmriaWsqOCs5c2k1iWxspHUQCDeAcCoJG7eFm53KzsBotM3yN7Z2ZEpPopqkPDW1wDLETo7O5LAtKUiZNBz9GVIlgGS+SzrwDh8v+qqa/LdIZIiFbWzKUGPkd4nVCD7lntZS2JZKS0AEgIv3wtRRM0LlaKuJhMuDKGIbC+R10v5G5za3uf2S/ei1a4SeLQqT2lMaz7kPEE8hEFyIIxcrhtpJVQXyA3RSSr5UDjr/HkLMl1FvhjE2zwKXk+ffnOqWao+yvuCSPrqftxRSdNtQk0kjQB1DCJZUaj6oJwrkmRx1OsyFvlbXNzWu1OHjGvevEjFjyW0pIcx48IQ3AIqOV1g85griETSAPlnqp7ok+2wScnN45yKkotCcuDQuDznh2r6xnL11ddUHZ0dIXlqqQop95q4VzIXbZpLYFykgCXEBWQoy262fl9u2fiYZ+WUPFdhcJKZ5FPxpBQWt75l++2HJkFok0TyHrRlDQ7wWxsk46YIteslxv5UqCkQC4KZfCsGJSsC4tjkqnCCG+O0TcApSQjrOSCbVPGylRvVgWowavTIXINhwRUiI3FIGIhvoZYXoCIhlQmSyo2izkEm/VEhBVKSFAgS8njZSqV6tkRFKfkQs7xMxA4kRPoH9A+BhOzLxWA4riLY2jw4ViEaPyeFT/aX9Sn6Csmy9pSlt8E8tCMFR9xITS/rRSwXLvbZvffen8zmiiuuzAVm2rR0F/MgsRDOfrGyceiw7VMV8jwcXjBWX9UTK7ZKdjz+qP2LOCGshFDjLmC+Ro4cmUSNoVk3T2ploY1YzIZ4EQ4tAFMyV5ZVO+6dICYSi9os3cjcHhV1h2smogRRbdOV520qn2mkQyjIBEmak24ScBYIzSCX7q5UJU4OQd2Dw3pZEBPgal42wnAvzkUHJ428DMeB+7zojQH9os8zXGvkru/SPn3bC4eYhSCabeL6nhvdTc7pOwcBZClQ+sJ+sdQ3bYBYBwIwB+DZkPD5gDppbiApMH6E5hmYQUnb13dE4jrXGFdRL9kXpSiET/cj0mLUGy+GBrTn/WnHda5XORJo33O0bX5INMzKuhgSPT1ekcNm3mRyqwaZq0XD7lE6yb1A341pU4QeAoGs1BbVCUkAqpAFSFQVi4amTD06OconP/6pXueJ2sPtCbnEU84+53Vh1C6N0p2/y7pQKrdvHi9yyHaDK2qEkptve/tbe5bvet6C4NZlaas165IleYuUMbXeHJx40gkpcdgW5593QR4rfxSO5hT48Y/OzVWN1Maf/fTnqRZBziZYnmsdyCuPPSYliDXs3446V1QLqfUnnXxiEvvXv/aNntted9Zrqx/+4EeVCpNWJFIV99l37+q6WElp3q4L++ySSy5NTsy58NGP/89caGWxFeQlEaigEiupqSmZgnFAPqs5MQFEAJkxFIgPSYuKw8iPQ0lQiIooKyoe1Y47Xqkk0tH93p3nOJeMIRCdtAcpPUI99OxCoJhJIcLCNPPiTfhPsggT5GXtMX5cGnG4ID1VcYOCmKecclK8xCi6dvppObnWhkCS2bMjFSX0VOrRv/7Lvwe36ZPIMG7cuESOT/z9x9IGscoQXxsbx88JA/yQ8BrR4b///R9WZ4eXCOeyylBl+Wk3TUu93JoOXHv//ffr6QfjEjHhajxI1B5r2Bn+vEzHHDMlkWafffbOckHHHX9sqk7Kkx5/wrG5ZQEv2g2hVvWPcRrD3Fh3r6KiLQXYVsB9VEpVGeWhWYbLuDcvbCJqydKlS1Mt+tm5P0+Hw5CQQABx8HBBOMShOuUjD9frXpwv5X+KjZfImOtP6vdQOLdrvRfngfUpAFK3SkuE5zpEhHAQhN8yoV3vO0IjjT0XMZZ2teWd+9xYqZ4d2QT+BFOvFwPR77lSa+IYnEY2taLArECQa675bejAO+Q/hqwK5bwuvB6IA9GQNpDYS2BjQIaOjo5sxot/6KEHk/MjysdC3Xrnu/7s/2vv3mO9rss4gB8LY4qbW5auhO3A4Uy5Hi8HTQUFdNPSUKe5Lg5FNG/90/CyyjXLubaay2WXtTSrDZdbU0kRLygGIZRNx2VgaEKAgEKEHi5qtvW8ni+f449fB1LTwxG/z9n5Xb/Xz+95Ps/zfm6fnCXNbIsXL0nPiqZtZlFdU+AQsxpi7sydOy/dkAKZgKjz8Naw8X/8o58kULWGyepgXswFMxFCDMv8YyqadQVFS/NtxzbTGoNC7vWI0GLnX3BeLmqK7ZYsWZKlv8YMuMb8ujHSDOILJaDqGFzamBAR5sKM+cFeejDmroMgNF9Ps8DtpUvsc6f9iNkFk8ENZkwzuXY5Hw+P1No1L6b6ddVa7GwPpni1q2ryBqBu3FhtK1h39deuzH0JCW8KLEMDEaLiEcGcOqc/OHNW1K3PSJtbLTr80jq41WliBquaMXN1xqUl8wObyEwMByF159y2mkMDpK4FYXTmHXubi1nzhi+GafRsbEvD/CH6bW3auDFjDk8//Uwyr/3MnH8Ok9IMi/QnNi40JGH79Z2/SQGYeumUnMmty4G4xhHw3Mh0hKdMMFtjIjCjOzYmNVHQLsa+N8n5evucvXl/78e5uiPpflxCUghzmFXM2n5cVNm7VXt9zAkE8gL5wdngf312RZhXA0JLbE5zBZg8IJhC3ynkWH4gzLQ6mJXGErjj7mXe3DX9t4lX2PZf/sqXUqPwcGEmGIKAmaUJcSGBsZc2vJzXwjNjJj8ugpy2515lGhUSACN1vDW0FRozprNlZbi1mSg8U9V6JVvSfPtXaCDxD9qAi9uY0Ja0bOuQ1pa7o/8XwviaaC9atChc5RvyOnmPpl3z9WxKx5Nl4kgAHN6wAqJhPtfbKFh5wPqhz4xAt4AQAvZ825AhLRvCbBBlZdtnpV5MdAVQ+jGZP7wnBIj5YPYFCPdEQOGbb8RsG2a0/R3n7cxmPS25YAk4npkUtsAxgHihcSePzeUQplxyUQquuIAOh1qBjhg5PDUXQcbUBJyJRBi5P3/w/VvKYXZ5PvucSel+XbHiuV0+5+I986wzo1He3WmOwTJ7Ip3rxR64awnZww89kpiGc6MWkj2N3N77LkE6DQADjBw8Imfyl2a/nNiCOUSr+N4MiCkJg86KhIN3xDOM4B8DMM/EU7q6oitixFIE5JhA997DpDo4BQ1IXxoxE8sabN+xPVv/iK1cefUVCc6ZJzAOfzw8c9lXpyaeEafQd9eMzoybeOqEBO86H5544gkZMznv/HPzWp2LeTcg4ibA/G233hbLuJ3UMiiEpdJ0B8U9Vy7nVaFBAH907XXTcjEfgk8A7p/xQJ6PR+9bN3wjcZjl1OCO0884PRwIR6fw3XTzd1L4itDq2kjb6CqvE/4Pb7k1TU3XyrM3ceKEFJD9Y9y2bbP6U8wcNfW5EUiQbkYHUAFuZhCfuuCc2d7MRijYznpHYZx0H7Jnw97HEGZjAgb08kKJxEq1oJUcz5ohiBYibNyrtu04alR6f+IUSbxamtQRAIJx9NFHJSBva2uL9IoTMog4YsTwNJ00jnsuZnSmGcEUhXcdgpU0CsEV6xCdltKxI+5xWzSYw7iIufOxWC4ZMdt4niad/flc39C5Dw7zx72ODY30emhHi28SGK1KCQd6Ys4TGblmrtFQ2pQSWvhpYFyPeyUcAw4ckM24uY9lCcBDxfFQeZPycPVDHxyBbpDOFpZqIUVk4OGRfBhtRsUVfI7xCAIbn7A0mkdeF/OAnc506OrqSnBszY3VEQtpHdyat86GJ3xcpXDGzAdmpQbAzMgCltYggTkwp6DX889X3d+tcqUN6h2335nCOGrUyMQF7Hju1hdeeKHl9l/ckSbhmWd9NhlwSAgWAZUGgqSJpKa66vJc/QnmEJQDzrmqYROR88WLlsQx12Y2ACHjRCC4mwJbyTtzfGBdrhpnAE+ZxEuCrUkeYTFJiAcpGbB4Dw0lqOk9TWicUQpK72L1PG/98PZGILN5C4NjCrjDTL/5n5vzB+aNwtjMK5qDJmkmQkNbbAnAbnUoeVaPPDo7XbS2nT9vfnqZ7IthaaZVK/+e6yBy6ZrUCSCmMtsLAGIqXqZZDz6cnqSlkRgo0c/1SMXItPHYR9xCs2zax/7cwrxqzDP1I7MjcIfJBdAEF3nQxFXkQgmI0gpZDBb3sDru32cmBSYVE01fMGkmMnQdJ+8vhAUIN07iIc67bNmyFP65c/+Y9//Y7Dndyz6YFOAUcR0JmYeEufq38MJtiAnF2BeN1Dyu9fu9PwLdIN2lmLlFmF8LBrHykwQ9eINgEACC0hNhbtWH8pGmXnpJeK2e+a81/mghx+f1aiazqEgyj1YzMVMwESH8f4hgYlQ0bNiRGcx86qkqE3ZPxy3pH7aBH5hYv7zjV3vaJb8LvboL49OsJhnjwKRFZWzLBJUf1g99agR2Aelcpp2dx8Y6e/Myi5Q71jod7GYFT2ZvwtD4g3oPEJtJr7r6ipaTLXwT6wICtMD20Pah6SGaPv2uzJgFopli7fE5TUA4Hn98TkbMmTtyvZgpnWM601ST7i3bV50CV6p8Ie5eblzeKcmKbPpTT5uYmbJMGeabYCFyPgHCn/305+k8WLHiuZaLp0xuefLJhS3fPfvGNCVv+Oa3o+bjgpaX4h6YTOteXB9MvCMFmjAwEWk2Y8PMRNL21VpUtTJV/2KR7pxIQqgTW8R7OE21HxOsyozV9f2g1MQ0VeNY5oHrhz41Av38QH4os1lHR0dqAoU8GMWMh6RfHxB1F4MGDUobnkYpP6xnSwojwTqNrzuisMnnnznh+LTtAWfp5Ahm6OzsbFm2fHmmhahJ0M5UEBBoZiq9/tobAWrHJjMWF+7w4cNTgwHE7H/HEfizeq6ouNiLdUAwI49bERCYweydSzmEcKD1cc4w6jIbV8Bz8sUXhlYZlkCdwMI/cDiTkeYhHBI2XeOsWQ/nMXaENmJiSW40SRQclV/ujKDn63iwHRIXQoQIlTHMN/VDnxyBBBR+KD+aDE8z3TnnTkovkig1ZikYkmergPTGuym5RTxBr4SWoU2AXoIncCaZr9C8ubFkc1TObYhZHlAtjKWwR8/cAEUJuueHK1ROFpMEORYnAhey1Ow34v26sP2l1cMcsATnADywcOFb51NTIpLf0TE6V8ftH0IoxjN69Oh0C6vCowlWhasXuKaZHG95CDCXMC8ZIsiukYmFmH6IcNS0745AN0gnIACzegQCAwQTBrULPDi0CRu+J5BuX65SrUuZTXMem5MxAIEwyxNwAbO7CZttFWaZeSsgvC6FgHBI2+Bpkgel/kNaiZnbtgJ+BIDZptqN52lNCDRzTqFPZ5hgD858KL1eAPrq1WvyV7PCrFQV4Jyp5T54k7ht7/ndvWH+fSriEY+mdqI5mWAAt6Q/8RvnI9A619OqXN0EXuCzBDz3Xfao76wbpGN8UXPMx6ujHplHiOll9uZpgUMweE9k/wKC1aNzcRYy2wL4QDocsztimxMmxxKTwcyEVkCRaUVAJB1aeFM6PLdvIfjgL6FxlMOW4iqmjeMhOKnZQUBQCN+eyH6Cpa7d+cVveNhgi5r2/RFIDYKBMePgwa0tEyaOTyYeH9VkUk/MooQEBsEotEtPtjPBEUco3ijeMP7cYiKpw1b1J03EqlDAvHLatrYhLR3B1MdENZ7gHw8TIHzt9deEoOyXWGPy5Avz3JdfcVmmuGQl3icOSbAOfwD0PGCi76cFWFc/QrDgCSkxzD33Vy01HU3wAkuI0QD/NJb74YKl4Vwv9zBsIwpP6LmIlebCMjQJAa7pwzECCdKBboykQYIM1FUrY/XXY4/tZm7VZQf2PzDLL+UuNeMQDEZA2OOHfvLQli37b0nQTPDM4syV/oklXkmgXxbYpA2YQmpJChaRQqKBAhAOmPMgqVhU8UZAMadZXAoHt6uEQtmyCqmmTrks0klOzHMoyMLw9qEBXSPNiGjGQkWrlBLh8nnJLLMfmOHZOJkAavrwjEBOhRgbM78Stryln4ePODKYoerBZCgEyjAIZsPIXjeTY9AShAfQx8gFwNIEJcaxYMGClvaw5WkmGbSEg+fL7E97SVUfN25cAOetqcFoLiWyHAHMHGnoJfXDTE8rANAEkfZxHyLkqAhdvqkf6hF4FyPQjUHY1Ho4SS/BiFl1F7Mw4IzpkJnY62YBKcLBhEKwhP16kKMUnM9+7oyMUpuZmS+6oTBpZtx3f3rQpK9LET8yGH50eJFoExrhlAmnpAMAaNbjKTVbuGF5nboi8ZB7F2bg4i2mXRHSvLD6oR6BdzgClYBg1H6UyX5pq5djEBSagPnkv3ihyvflma0PfEtQ9KxLyEGBX9jtzVQ0UfPn3jsfIWx+nR+8g4ciHO9gl3rTegR6HIFUDdLWC0gfO+6caF4wPWu0l0fUWrGTGZyg8OL0pEEICBJfGDVqZAqIfTa+vClT4pvPzN2q2ZuGDJV3rPJy0UDAvZpvJpMGEGIesn9dnwi6WAQhY8ox6aipNKV24gTH05az1hzNo16/fzcj8NHQCjcmrgjtAQOIHLPrmTG6BK5ZszZndh4cHh++/2YcwtQBYP8RgUJNDlauXJlRbsC/J0Z1DJiCEMAhVdueCkjDL45PY3n2HvbxfttW7Turzx2XIEnpsJ3/crx3MxD1PvUI9DQCqUEwHZcuJiMgPDU0BfcoEh8xa/u+J4YvmIQQ2UYzBvs7bk9Uti/fNb5vfO37xvelq0dP+5XP6ud6BN7LEeiH4QXxzNIaKZS+VHpaiUgjs/Srb76aZg4c0si0vocduuLvpHDbrlu/PnOcRJwVJe0uA9h+NdUj0NdHoAGkVw3MqsBYv9AEgQF2gnRC5L/Rddt4Y7SFiLXkRDEGtdm7M68a96tf1yPQ10cgBcQsDwRz8R4TOU3A+GGHHhZu1xmBAawNsntzyQ0SHkDdfqhy877VmCw/rB/qEfgAjkDWpJc2NPq2KpQCnGmQwwcODG9Rz1WEjffK5ALSxSCkpTRH2hu3rV/XI/BBGoGMpAvqCdYxiyQaaoYgQ3ZodGRHb2fZZ0IihsGTVDCKZ9qlmeJjIZea6hHo8yOQyYqwBQ2wePGSTDURaNNk+k8RveaSRT0xevPdOU4J0hWzTBKgzwkOrIKkiEhp8d53PF+EyXvnKY4A36kF93mj4DWft35fj8D7NQLdqSZwCCYskWwnFMiTvIiB830w7J4EJXOuIu2jUGMdOO3EU9YYLS/bwSzOTRjVWciYVeOe6SQ7XcU1rimjVT/35gh0axDeK8VJE08dn+c/ITxSmyPpD7MysXIZgtAyZvViQjVeqM+16Rk//pSIo+yf7UQVKl1z3bTsi6WFp8VYpKJol9PWNiTNOWnntgPyReI3btyUSYfq1kXcaaDhUQ4r+CiyvicBbbye+nU9Au/FCFQ2z84jWe4L0O7oGB1ao6oSTIEIwACbIJmyzUwqrUSZ7SVTL85mD/r2EgLPI0ZEo7dwFx8QmgjOgXcsFLpmzdos63W8m2/6XtZdnDXpooy9ON75XzgvW6B+OoSGAMn4VS5LC9VUj0BvjUB6seAP6SUaJsh3YgbBAccdPyY9Ul4TFGYSU6xZQMrFMqmsS5jR+MANekw9G0KihJZw6JLiPFqaLnhyQTZRw/RHRGtQtC76UI0dN3Zn/9pqKTb1IRovqCAkTLBNTfUI9NYIdJtYhERiIkbWpVB14KpoZGD2JiASAJlHXLjN0XEr3cIPGrM5jpVXvVbPrXN7e3t7Hkd3dY0XHEeBEmbXEnTp4qUZaIRDBg9uja4jGzIpUU2I89FqFr9U9x4XvFsB7a1Bq8/z4RmBbpBOQxCC0sKnDIG4hpwqzKwhAw1ju0YcQqPwTMm0bSQaw/IF/4sIoH8OguIQKPsA56WuXL4YIWk8d9mufq5H4P0YgRQQDMe2lz9lnQ+AvbW1NTp8rEht4MTXXj8t2+LMfGBWahfbNBIh4eItCYpcs7YpSZA6DQLi6sUVZ9EWCf5DMBU82Y9mgj8IhGP9Oxaj5MlyDK154KK41JrqEei1EchAIe2BgGd9n6w0xVSCOQrpNmjdQdRT4JCQMbPsxywqsz7GVm5LANWWEwbb0RReb+uq1vmwPyGxJqH9pa3Yj6Q4srUAAADMSURBVCBZ3893tXCUX6N+7q0RqNYojFka5pCLJWVd/ycMbLEXGAJtjZJWGgbtzszB5P4RbVDel9eCfuUz2+TrwC+NVFLry3aEt1q5tXGr+nU9Ar0zArn8gfoPyYraamrnqQ5ke6ylwUTq37/qbKjtqIZqCF4oplTvXGZ9lnoE9s4IdPtMzdQA9Yz7ft99JXBAMZV4m3R7Rz4zw9dUj8C+PgLdXiwagYeqvX1oroMxbMSwlgXzFyYW0MG8dCDUA1epay0g+zpr1PdnBP4D6eWU7ffoMUEAAAAASUVORK5CYII=;" vertex="1" parent="1">
          <mxGeometry x="142" y="190" width="200" height="200" as="geometry" />
        </mxCell>
        <mxCell id="_1kEMvsw2rr0q348Ayij-6" value="Monotone" style="rounded=0;whiteSpace=wrap;html=1;fontSize=27;fontFamily=Courier New;" vertex="1" parent="1">
          <mxGeometry x="130" y="180" width="150" height="120" as="geometry" />
        </mxCell>
      </root>
    </mxGraphModel>
  </diagram>
</mxfile>
